<svg xmlns="http://www.w3.org/2000/svg" xmlns:xlink="http://www.w3.org/1999/xlink" width="1384.706" height="846.464" viewBox="0 0 1384.706 846.464"><defs><clipPath id="a"><path d="M26.373,42.2H0V7.911H5.274V36.924h21.1V42.2Zm7.911-7.914H7.911V0H34.284V34.284Z" transform="translate(0)" fill="#bebebe"/></clipPath><clipPath id="d"><path d="M36.663,81.785C18.4,81.785.182,76.122,0,76.065V63.454A22.97,22.97,0,0,1,6.515,47.836a22.2,22.2,0,0,1,16.124-7.071L36.663,49.73l13.778-9.216c5.666,0,11.49,2.658,15.982,7.292,4.389,4.528,6.907,10.231,6.907,15.647V76.065l-.034.014C71.351,76.663,53.8,81.785,36.663,81.785Zm0-45.067c-5.938,0-9.38-4.738-11.222-8.712a34.36,34.36,0,0,1-2.6-8.712c-.863-5.724.48-11.3,3.594-14.92A12.842,12.842,0,0,1,36.512,0,12.907,12.907,0,0,1,46.645,4.388C49.756,8,51.1,13.575,50.236,19.293a34.008,34.008,0,0,1-2.474,8.712C45.977,31.98,42.6,36.718,36.663,36.718Z" fill="#bebebe"/></clipPath><clipPath id="e"><path d="M23.807,53.107A91.6,91.6,0,0,1,0,49.393V41.2A14.916,14.916,0,0,1,4.23,31.063,14.415,14.415,0,0,1,14.7,26.471l9.107,5.822,8.947-5.984a14.759,14.759,0,0,1,10.378,4.735A14.984,14.984,0,0,1,47.617,41.2v8.189l-.022.009C46.332,49.781,34.933,53.107,23.807,53.107Zm0-29.265c-3.856,0-6.091-3.076-7.287-5.657a22.312,22.312,0,0,1-1.689-5.657A12.193,12.193,0,0,1,17.164,2.84,8.339,8.339,0,0,1,23.709,0a8.381,8.381,0,0,1,6.58,2.85,12.18,12.18,0,0,1,2.332,9.678,22.083,22.083,0,0,1-1.607,5.657C29.855,20.766,27.664,23.843,23.807,23.843Z" transform="translate(0)" fill="#bebebe"/></clipPath><clipPath id="g"><path d="M51.764,88H36.236V76.716a33.054,33.054,0,0,1-9.886-4.09L18.374,80.6,7.4,69.621l7.971-7.971a33.055,33.055,0,0,1-4.09-9.886H0V36.39H11.232a33.7,33.7,0,0,1,4.142-10.04L7.4,18.374,18.272,7.505l7.971,7.971a33.411,33.411,0,0,1,9.993-4.193V0H51.764V11.284a33.054,33.054,0,0,1,9.886,4.09L69.621,7.4,80.6,18.374,72.626,26.35a33.7,33.7,0,0,1,4.142,10.04H88V51.764H76.716a33.053,33.053,0,0,1-4.193,9.993l7.971,7.971L69.621,80.6,61.65,72.626a33.056,33.056,0,0,1-9.886,4.09V88ZM44,28.47A15.53,15.53,0,1,0,59.53,44,15.545,15.545,0,0,0,44,28.47Z" transform="translate(-0.346 -0.164)" fill="none"/></clipPath><clipPath id="h"><rect width="111.7" height="115.605" fill="none"/></clipPath><clipPath id="i"><path d="M13.229,55.864H3.307L0,49.247,26.294,23.813a16.5,16.5,0,1,1,26.461,4.432,16.348,16.348,0,0,1-11.64,4.81,16.785,16.785,0,0,1-6.849-1.47L28.08,42.534l-9.889,1.024-4.961,12.3Zm31.223-47.3a4.415,4.415,0,1,0,4.4,4.4A4.4,4.4,0,0,0,44.452,8.566Z" fill="#888"/></clipPath><clipPath id="j"><rect width="143" height="143" fill="none"/></clipPath><clipPath id="k"><path d="M71.5,143A71.5,71.5,0,1,1,143,71.5,71.581,71.581,0,0,1,71.5,143Zm.933-61.062C69,92.054,65.487,102.353,62.086,112.312l-.037.109-.032.094q-3.439,10.07-6.887,20.188A55.88,55.88,0,0,0,71.5,135.066a60.553,60.553,0,0,0,19.376-3.218ZM13.082,45.83h0A62.365,62.365,0,0,0,7.934,71.5c0,24.665,14.006,47.37,35.682,57.845-7.96-21.65-16-43.695-23.782-65.013l-.136-.373q-3.309-9.068-6.616-18.128Zm114.476-4.712-.008,0c2.16,16.51-1.142,25.264-2.916,29.967l-.155.411c-5.117,13.485-10.281,27.3-15.274,40.656l-.18.481q-2.712,7.255-5.422,14.495c19.4-11.2,31.461-32.508,31.461-55.631A62.935,62.935,0,0,0,127.559,41.119ZM39.28,35.964c1.769,0,2.689,1.935,2.8,3.733.111,1.87-.612,3.983-2.461,4.2-.045,0-4.49.433-8.366.573L55.625,109.9,68.572,68.212,59.563,43.829l-6.583-.573c-1.765-.07-2.514-2.191-2.473-4.261.044-2.217,1.011-4.462,2.774-4.462.043,0,.086,0,.13,0,.105.009,10.557.856,16.66.856,6.582,0,16.591-.821,17.014-.856q.067,0,.134,0c1.759,0,2.667,2.153,2.766,4.153.1,2.074-.626,4.389-2.468,4.571a14.8,14.8,0,0,1-5.862,1.216l21.667,59.846c.087-.222,10.007-25.313,10.007-35.747,0-7.328-1.249-12.918-3.932-17.593-.4-.657-.8-1.3-1.192-1.933-2.813-4.533-5.243-8.447-5.243-13.08,0-7.408,5.383-11.406,10.448-11.406a8.476,8.476,0,0,1,1.347.106A64.115,64.115,0,0,0,18.089,36.68c1.5.071,2.847.071,4.151.071,6.52,0,16.84-.777,16.944-.785Z" transform="translate(0 0)" fill="#bebebe"/></clipPath><clipPath id="l"><rect width="149.995" height="149.995" fill="none"/></clipPath><clipPath id="m"><path d="M24,48A24,24,0,1,1,48,24,24.027,24.027,0,0,1,24,48Zm6.122-35.877L12.307,23.909,30.122,35.877Z" transform="translate(0 0)" fill="#bebebe"/></clipPath><clipPath id="r"><path d="M5.952,0H32.737a5.97,5.97,0,0,1,5.952,5.952V26.785a5.97,5.97,0,0,1-5.952,5.952H26.785L11.9,47.617V32.737H5.952A5.97,5.97,0,0,1,0,26.785V5.952A5.97,5.97,0,0,1,5.952,0Z" fill="#bebebe"/></clipPath><clipPath id="u"><path d="M3.733,40.838A3.643,3.643,0,0,1,0,37.118c-.006-2.35,1.756-5.519,4.713-8.476A24.146,24.146,0,0,1,7.4,26.406c.613-.456,1.245-.9,1.855-1.33a30.643,30.643,0,0,0,4.03-3.17,2.679,2.679,0,0,0,0-3.781l-2.823-2.82a2.66,2.66,0,0,1,0-3.755l4.713-4.713L34,25.661l-4.711,4.711a2.649,2.649,0,0,1-3.755,0l-2.823-2.82a2.649,2.649,0,0,0-3.755,0,29.836,29.836,0,0,0-3.305,4.2c-.387.554-.786,1.126-1.192,1.681a25.2,25.2,0,0,1-2.264,2.717C9.235,39.086,6.072,40.838,3.733,40.838ZM35.889,23.771l0,0L17.067,4.946,21.059.954A4.367,4.367,0,0,1,24.237,0,11.89,11.89,0,0,1,30.4,1.805a31.6,31.6,0,0,1,3.084,2.342A26.06,26.06,0,0,0,38.153,7.4c2.539,1.377,5.1,2.613,8.547,2.613A16.487,16.487,0,0,0,50,9.66L35.891,23.769Z" transform="translate(0)" fill="#bebebe"/></clipPath><clipPath id="aa"><path d="M41.565,47.617H4.7V29.277l18.434-18.4,18.431,18.4v18.34ZM16.988,29.186h0V44.545h12.29V29.186ZM3.255,26.39l0,0L0,23.134,23.134,0,35.421,12.287V6.144h6.144v12.29l4.7,4.7-3.252,3.252L23.134,6.514,3.257,26.388Z" fill="#bebebe"/></clipPath><clipPath id="ad"><path d="M52.16,47.617H6.448a29.3,29.3,0,1,1,45.713,0ZM36.629,14.65,24.287,31.318a7.258,7.258,0,0,0-2.308,5.311,7.325,7.325,0,0,0,14.65,0ZM51.283,25.641A3.663,3.663,0,1,0,54.946,29.3,3.668,3.668,0,0,0,51.283,25.641Zm-43.958,0A3.663,3.663,0,1,0,10.988,29.3,3.667,3.667,0,0,0,7.325,25.641ZM43.954,10.988a3.664,3.664,0,1,0,3.663,3.663A3.667,3.667,0,0,0,43.954,10.988Zm-29.3,0a3.664,3.664,0,1,0,3.666,3.663A3.667,3.667,0,0,0,14.65,10.988ZM29.3,3.663a3.663,3.663,0,1,0,3.663,3.663A3.667,3.667,0,0,0,29.3,3.663Zm0,36.629a3.663,3.663,0,1,1,3.663-3.663A3.667,3.667,0,0,1,29.3,40.292Z" transform="translate(0 0)" fill="#bebebe"/></clipPath><clipPath id="af"><path d="M30.138,35a4.862,4.862,0,1,1,0-9.723,5.319,5.319,0,0,1,.973.1V15.556H25.277V9.723H35V30.138A4.867,4.867,0,0,1,30.138,35ZM16.527,35a4.862,4.862,0,0,1,0-9.723,5.319,5.319,0,0,1,.973.1V23.333h3.888v6.806A4.867,4.867,0,0,1,16.527,35Zm4.862-13.612H1.944A1.946,1.946,0,0,1,0,19.444V5.833A1.946,1.946,0,0,1,1.944,3.888H5.192L7.777,0h7.779l2.586,3.888h3.246a1.946,1.946,0,0,1,1.944,1.944V19.444A1.946,1.946,0,0,1,21.388,21.388ZM11.667,6.806a4.861,4.861,0,1,0,4.86,4.861A4.867,4.867,0,0,0,11.667,6.806Z" transform="translate(0 0)" fill="#bebebe"/></clipPath><clipPath id="an"><path d="M25.013,5.029,30.042,0,47.617,17.548,42.56,22.577a7.547,7.547,0,0,0-9.423.995l-2.073,2.073a7.539,7.539,0,0,0-.967,9.423L25.04,40.1l-6.66-6.66-7.737,7.71C9.482,42.308,1.3,48.636.142,47.475s5.14-9.368,6.3-10.529l7.71-7.71-6.66-6.687L12.55,17.52a7.469,7.469,0,0,0,9.4-.995l2.073-2.073a7.5,7.5,0,0,0,.995-9.423Z" transform="translate(0 0)" fill="#bebebe"/></clipPath><clipPath id="at"><path d="M4.657,47.843a4.563,4.563,0,0,1-3.281-1.376A4.565,4.565,0,0,1,0,43.207a4.647,4.647,0,0,1,1.376-3.328l3.851-3.851V23.973c0-3.612,1.289-9.959,3.389-12.089l2.827-3.479L39.437,36.4l-3.7,2.609c-2.124,2.124-7.961,3.6-11.871,3.6H11.815L7.961,46.467A4.641,4.641,0,0,1,4.657,47.843ZM36.951,30.03l0,0-5.778-5.809L41.238,14.152a2.113,2.113,0,0,1,1.559-.6,4.807,4.807,0,0,1,3.256,1.562,4.81,4.81,0,0,1,1.564,3.264,2.107,2.107,0,0,1-.6,1.551l-10.065,10.1ZM23.4,16.454l0,0-5.806-5.809L27.662.576A2.181,2.181,0,0,1,29.221,0a4.855,4.855,0,0,1,3.286,1.569A4.807,4.807,0,0,1,34.07,4.833a2.111,2.111,0,0,1-.6,1.554L23.4,16.452Z" transform="translate(0 0)" fill="#bebebe"/></clipPath><clipPath id="ax"><path d="M7.686,45.529a7.9,7.9,0,0,1-5.433-2.112,6.85,6.85,0,0,1,0-10.158L22.039,17.838a12.333,12.333,0,0,1,3-14.083A14.089,14.089,0,0,1,34.732,0,14.861,14.861,0,0,1,39.37.74L30.6,8.961l8.557,8.025,8.68-8.167A12.26,12.26,0,0,1,44.559,22.05a14.181,14.181,0,0,1-9.752,3.794,14.549,14.549,0,0,1-5.27-.978L13.119,43.417A7.9,7.9,0,0,1,7.686,45.529Zm0-10.079A3.169,3.169,0,0,0,5.5,36.3a2.755,2.755,0,0,0-.887,2.005A2.823,2.823,0,0,0,5.5,40.374a3.217,3.217,0,0,0,2.18.832,3.142,3.142,0,0,0,2.16-.832,2.79,2.79,0,0,0,.909-2.064A2.724,2.724,0,0,0,9.841,36.3,3.1,3.1,0,0,0,7.681,35.45Z" fill="#bebebe"/></clipPath><clipPath id="ay"><path d="M32.888,32.888H2.349A2.353,2.353,0,0,1,0,30.537V2.349A2.351,2.351,0,0,1,2.349,0H32.888a2.351,2.351,0,0,1,2.349,2.349V30.537A2.353,2.353,0,0,1,32.888,32.888ZM21.142,9.4a2.35,2.35,0,0,0,0,4.7H23.49v12.92a1.174,1.174,0,0,0,2.349,0V14.1h2.349a2.35,2.35,0,0,0,0-4.7H25.839V5.873a1.174,1.174,0,1,0-2.349,0V9.4Zm-14.1,9.4a2.349,2.349,0,1,0,0,4.7H9.4v3.524a1.175,1.175,0,0,0,2.351,0V23.49H14.1a2.349,2.349,0,0,0,0-4.7H11.746V5.873a1.175,1.175,0,0,0-2.351,0v12.92Z" transform="translate(0)" fill="#bebebe"/></clipPath><clipPath id="bd"><path d="M12.17,48A12.179,12.179,0,0,1,3.558,27.218l4.32-4.292a11.976,11.976,0,0,1,8.534-3.505,12.691,12.691,0,0,1,3.155.4L7.878,31.538a6,6,0,0,0-1.8,4.278A6.085,6.085,0,0,0,16.462,40.15L28.151,28.433a12.017,12.017,0,0,1-3.077,11.689l-4.292,4.32A12.141,12.141,0,0,1,12.17,48Zm4.288-13.447a3.014,3.014,0,0,1-2.143-5.16L29.366,14.315a3.131,3.131,0,0,1,2.174-.868,3.014,3.014,0,0,1,2.146,5.16L18.607,33.685A3.05,3.05,0,0,1,16.458,34.553Zm15.176-5.986a12.557,12.557,0,0,1-3.2-.417l7.4-7.369,2.145-2.175,2.147-2.145a6.079,6.079,0,0,0,0-8.584,6.019,6.019,0,0,0-8.584,0l-2.173,2.145-9.544,9.544A12.1,12.1,0,0,1,22.926,7.878l4.292-4.32A12.179,12.179,0,0,1,44.442,20.782l-4.32,4.292A11.922,11.922,0,0,1,31.634,28.567Z" transform="translate(0 0)" fill="#bebebe"/></clipPath><clipPath id="bf"><path d="M7.007,45.247A23.916,23.916,0,0,1,0,44.152c3.576-2.354,4.473-4.9,5.341-7.371.731-2.079,1.422-4.042,3.711-5.633a6.809,6.809,0,0,1,3.914-1.25,6.44,6.44,0,0,1,4.717,2.065,7.257,7.257,0,0,1,1.441,4.955,6.666,6.666,0,0,1-1.89,4.74A14.734,14.734,0,0,1,7.007,45.247ZM21.8,30.381h0a4.223,4.223,0,0,1-3.191-1.054c-2.635-2.8.488-10.644,3.054-13.506C26.868,10.1,41.163,1.19,43.157.211A3.6,3.6,0,0,1,44.386,0a3.027,3.027,0,0,1,2.191.882,3.9,3.9,0,0,1,.868,3.811c-.9,1.936-9.8,16.224-15.413,21.832C30.285,28.272,25.331,30.381,21.8,30.381Z" transform="translate(0)" fill="#888"/></clipPath><clipPath id="bi"><path d="M26.47,45H18.53V39.23a16.9,16.9,0,0,1-5.055-2.092L9.4,41.214,3.786,35.6l4.076-4.076A16.9,16.9,0,0,1,5.77,26.47H0V18.608H5.744a17.234,17.234,0,0,1,2.118-5.134L3.786,9.4,9.344,3.838,13.42,7.914A17.085,17.085,0,0,1,18.53,5.77V0h7.94V5.77a16.9,16.9,0,0,1,5.055,2.092L35.6,3.786,41.214,9.4l-4.076,4.079a17.235,17.235,0,0,1,2.118,5.134H45V26.47H39.23a16.9,16.9,0,0,1-2.144,5.11l4.076,4.076L35.6,41.214l-4.076-4.076A16.9,16.9,0,0,1,26.47,39.23V45ZM22.5,14.558a7.942,7.942,0,1,0,7.943,7.94A7.949,7.949,0,0,0,22.5,14.558Z" transform="translate(0)" fill="#bebebe"/></clipPath><clipPath id="bn"><path d="M55.711,47.617H32.253V37.357l11.73-10.263L55.711,37.357v10.26Zm-14.659-8.8h0v5.864h5.864V38.822Zm-14.662,8.8H2.932V37.357l11.73-10.263L26.389,37.357v10.26Zm-14.662-8.8h0v5.864h5.866V38.822ZM31.459,35.1l0,0-2.136-2.14L27.183,35.1,14.662,24.162,2.14,35.1l0,0,0,0L0,32.958,14.662,20.114,29.321,32.958,43.983,20.114,58.643,32.958,56.5,35.1,43.983,24.162,31.462,35.1Zm-2.283-5.515,0,0L17.594,19.412V17.24L29.321,6.977,41.051,17.24v2.288L29.178,29.584ZM26.389,18.3h0v4.985h5.864V18.3H26.389ZM16.8,14.986l0,0-2.136-2.14L29.321,0,43.983,12.844l-2.138,2.138L29.321,4.046,16.8,14.984Z" transform="translate(0 0)" fill="#888"/></clipPath><clipPath id="bp"><path d="M45.759,39.111H26.492V30.684l9.635-8.43,9.633,8.43v8.427ZM33.718,31.887h0V36.7h4.816V31.887ZM21.675,39.111H2.408V30.684l9.635-8.43,9.633,8.43v8.427ZM9.633,31.887h0V36.7h4.818V31.887ZM25.84,28.83l0,0L24.083,27.07l-1.756,1.756L12.043,19.846,1.758,28.828h0l0,0L0,27.07,12.043,16.521,24.083,27.07,36.126,16.521,48.167,27.07l-1.756,1.756L36.126,19.846,25.841,28.828ZM23.964,24.3h0l-9.512-8.354V14.16l9.633-8.43,9.635,8.43V16.04L23.966,24.3Zm-2.289-9.273h0v4.094h4.816V15.027H21.675ZM13.8,12.309l0,0-1.755-1.758L24.083,0,36.126,10.549,34.37,12.306,24.083,3.323,13.8,12.307Z" fill="#888"/></clipPath><clipPath id="bq"><path d="M8.09,34.165H2.023L0,30.118,16.08,14.564a10.094,10.094,0,1,1,16.182,2.711,10,10,0,0,1-7.119,2.942,10.265,10.265,0,0,1-4.189-.9l-3.783,6.7-6.048.626L8.091,34.164Zm19.1-28.926A2.7,2.7,0,1,0,29.876,7.93,2.693,2.693,0,0,0,27.185,5.239Z" fill="#888"/></clipPath><clipPath id="bt"><rect width="47.617" height="47.147" fill="none"/></clipPath><clipPath id="bu"><path d="M23.809,47.147A23.718,23.718,0,0,1,0,23.575a23.81,23.81,0,0,1,47.617,0A23.718,23.718,0,0,1,23.809,47.147ZM23.2,3.09A21.053,21.053,0,0,0,4.022,17.837c3.026,3.355,7.768,5.318,14.5,6-3.69,1.96-4.26,4.412-4.763,6.576a5.937,5.937,0,0,0,2.669,2.25c2.656,1.526,5.961,3.424,5.8,10.95,7.018-2.982,10.632-7.123,10.74-12.31.075-3.712-.569-6.463-9.6-8.066-5.525-1-9.315-3.084-9.892-5.439a3.021,3.021,0,0,1,1.427-3.126,1.634,1.634,0,0,1,1.026-.391,4.485,4.485,0,0,1,2.469,1.4c.129.108.259.217.392.326a6.042,6.042,0,0,0,3.777,1.72,4.2,4.2,0,0,0,.564-.039C19.282,13.959,20.855,6.907,23.2,3.09Zm17.777,9.432c-3.709,3.123-5.171,5.813-4.469,8.223a9.176,9.176,0,0,0,2.746,3.845A16.052,16.052,0,0,1,43.2,30.016c.031-.1.072-.227.121-.376.736-2.236,2.976-9.038-2.344-17.12Z" transform="translate(0)" fill="#bebebe"/></clipPath><clipPath id="bv"><rect width="73.9" height="73.172" fill="none"/></clipPath><clipPath id="co"><rect width="33.332" height="41.026" fill="none"/></clipPath><clipPath id="cp"><path d="M28.2,41.026H5.128a2.567,2.567,0,0,1-2.564-2.564V12.821h28.2V38.462A2.567,2.567,0,0,1,28.2,41.026ZM23.077,17.949V35.9h2.564V17.949Zm-7.691,0V35.9h2.564V17.949Zm-7.694,0V35.9h2.564V17.949Zm25.641-7.694H0V7.691A2.567,2.567,0,0,1,2.564,5.128h7.691a6.571,6.571,0,0,1,12.821,0h7.691a2.567,2.567,0,0,1,2.564,2.564v2.564ZM16.666,2.564a4.145,4.145,0,0,0-3.845,2.564h7.691A4.147,4.147,0,0,0,16.666,2.564Z" transform="translate(0 0)" fill="#bebebe"/></clipPath><clipPath id="cq"><rect width="63.518" height="57.62" fill="none"/></clipPath><clipPath id="da"><rect width="47.617" height="47.688" fill="none"/></clipPath><clipPath id="db"><path d="M0,47.688v-.005L3.982,28.536C4.209,28.308,30.06,2.353,31.407.975A3.755,3.755,0,0,1,34.065,0a4.4,4.4,0,0,1,3.106,1.216l9.3,9.335a4.175,4.175,0,0,1,.105,5.628L19.084,43.706.005,47.687ZM33.087,16.112,13.9,35.332l3.707,3.707L36.76,19.818ZM27.8,10.792,8.616,30.046l3.809,3.809,19.017-19.39Z" transform="translate(0 0)" fill="#bebebe"/></clipPath><clipPath id="dc"><rect width="85.027" height="77.132" fill="none"/></clipPath><clipPath id="dg"><rect width="37.141" height="37.197" fill="none"/></clipPath><clipPath id="dh"><path d="M0,37.2v0L3.106,22.258C3.283,22.08,23.447,1.835,24.5.76A2.929,2.929,0,0,1,26.571,0a3.429,3.429,0,0,1,2.423.948L36.249,8.23a3.256,3.256,0,0,1,.082,4.39L14.886,34.091,0,37.2Zm25.808-24.63L10.843,27.559l2.891,2.891L28.673,15.458ZM21.685,8.418,6.72,23.436l2.971,2.971L24.524,11.283Z" transform="translate(0 0)" fill="#bebebe"/></clipPath><clipPath id="di"><rect width="66.321" height="60.163" fill="none"/></clipPath><clipPath id="dp"><rect width="47.617" height="52.079" fill="none"/></clipPath><clipPath id="dq"><path d="M47.617,52.079H0V7.441H8.927V4.465a4.361,4.361,0,0,1,1.31-3.155,4.455,4.455,0,0,1,6.31,0,4.361,4.361,0,0,1,1.31,3.155V7.441h11.9V4.465A4.361,4.361,0,0,1,31.07,1.31a4.455,4.455,0,0,1,6.31,0,4.359,4.359,0,0,1,1.307,3.155V7.441h8.93V52.079ZM2.976,19.344V49.1H44.641V19.344ZM34.225,2.976a1.468,1.468,0,0,0-1.071.447,1.439,1.439,0,0,0-.418,1.042V11.9a1.488,1.488,0,1,0,2.976,0V4.465A1.438,1.438,0,0,0,35.3,3.423,1.468,1.468,0,0,0,34.225,2.976Zm-20.833,0a1.344,1.344,0,0,0-1.042.447A1.343,1.343,0,0,0,11.9,4.465V11.9a1.468,1.468,0,0,0,.447,1.071,1.508,1.508,0,0,0,2.084,0,1.468,1.468,0,0,0,.447-1.071V4.465a1.344,1.344,0,0,0-.447-1.042A1.343,1.343,0,0,0,13.392,2.976Zm25.3,43.152H32.736V40.176h5.951v5.951Zm-11.9,0H20.833V40.176h5.951v5.951Zm-11.9,0H8.927V40.176h5.954v5.951ZM38.687,37.2H32.736V31.249h5.951V37.2Zm-11.9,0H20.833V31.249h5.951V37.2Zm-11.9,0H8.927V31.249h5.954V37.2Zm23.806-8.927H32.736V22.319h5.951v5.954Zm-11.9,0H20.833V22.319h5.951v5.954Zm-11.9,0H8.927V22.319h5.954v5.954Z" fill="#bebebe"/></clipPath><clipPath id="dr"><rect width="66.409" height="67.482" fill="none"/></clipPath><clipPath id="eb"><rect width="29.523" height="39.365" fill="none"/></clipPath><clipPath id="ec"><path d="M27.063,39.365H2.46A2.463,2.463,0,0,1,0,36.9V19.682a2.463,2.463,0,0,1,2.46-2.46H19.682V9.84a4.921,4.921,0,0,0-9.842,0H4.92a9.841,9.841,0,0,1,19.682,0v7.382h2.46a2.463,2.463,0,0,1,2.46,2.46V36.9A2.463,2.463,0,0,1,27.063,39.365Zm-12.3-17.222a3.7,3.7,0,0,0-3.691,3.691,3.644,3.644,0,0,0,2.117,3.321l-.886,5.29h4.92l-.886-5.29a3.644,3.644,0,0,0,2.115-3.321A3.694,3.694,0,0,0,14.762,22.142Z" transform="translate(0)" fill="#bebebe"/></clipPath><clipPath id="ed"><rect width="54.9" height="55.787" fill="none"/></clipPath><clipPath id="ee"><rect width="47.617" height="39.64" fill="none"/></clipPath><clipPath id="ef"><path d="M7.516,39.64a2.565,2.565,0,0,1-1.854-.773l-.45-.45a2.643,2.643,0,0,1,0-3.731l4.207-4.231A25.6,25.6,0,0,1,0,20.058,25.757,25.757,0,0,1,9.628,9.5a26.246,26.246,0,0,1,14.18-4A26.154,26.154,0,0,1,32.8,7.1L39.1.773a2.669,2.669,0,0,1,3.757,0l.424.45a2.643,2.643,0,0,1,0,3.731L9.39,38.867A2.632,2.632,0,0,1,7.516,39.64ZM16,11.2A22.539,22.539,0,0,0,8.7,14.53a17.023,17.023,0,0,0-5,5.528,21.9,21.9,0,0,0,8.066,8.069l3.388-3.386A10.152,10.152,0,0,1,13.121,18.5,10.364,10.364,0,0,1,16,11.2Zm10.29-.876v0a3.34,3.34,0,0,0-2.2,1.059,3.332,3.332,0,0,0-.079,4.469l4.762-4.736a3,3,0,0,0-1.19-.686l-.158-.016c-.285-.029-.675-.069-1.139-.091ZM23.809,34.607a26.232,26.232,0,0,1-4.84-.476L21.8,31.3c.164.013.327.028.492.043.5.045,1,.091,1.518.091a23.063,23.063,0,0,0,11.9-3.2,22,22,0,0,0,8.2-8.173,17.025,17.025,0,0,0-5-5.528.863.863,0,0,1-.116-.052.856.856,0,0,0-.122-.055l2.54-2.538a25.158,25.158,0,0,1,6.4,8.174,25.756,25.756,0,0,1-9.628,10.554A26.245,26.245,0,0,1,23.809,34.607Zm.1-5.424,0,0L34.5,18.6a10.313,10.313,0,0,1-3.121,7.433,10.359,10.359,0,0,1-7.455,3.147Z" fill="#bebebe"/></clipPath><clipPath id="eg"><rect width="59.031" height="59.984" fill="none"/></clipPath><clipPath id="et"><rect width="47" height="47" fill="none"/></clipPath><clipPath id="eu"><path d="M48,48H0V41.141H48V48ZM41.141,34.284H6.856V13.713H41.141V34.284ZM48,6.856H0V0H48V6.856Z" transform="translate(0 0)" fill="#bebebe"/></clipPath><clipPath id="ev"><rect width="78.344" height="75.225" fill="none"/></clipPath><clipPath id="ew"><rect width="41.666" height="47.617" fill="none"/></clipPath><clipPath id="ex"><path d="M20.833,47.617h0A31.722,31.722,0,0,1,10.416,39.06,42.712,42.712,0,0,1,3.255,26.272,60.117,60.117,0,0,1,0,5.951,41.521,41.521,0,0,0,20.833,0,41.806,41.806,0,0,0,41.666,5.951a60.115,60.115,0,0,1-3.255,20.321A42.711,42.711,0,0,1,31.249,39.06a31.729,31.729,0,0,1-10.415,8.556ZM5.951,23.809C8.893,35.575,20.714,44.552,20.833,44.641V23.812l14.879,0c.028-.028,2.976-3.187,2.976-14.881l-.036-.005c-1.53-.315-15.031-3.159-17.818-5.946V23.809Z" transform="translate(0)" fill="#bebebe"/></clipPath><clipPath id="ey"><rect width="65.473" height="62.497" fill="none"/></clipPath><clipPath id="fi"><rect width="47" height="48" fill="none"/></clipPath><clipPath id="fj"><path d="M24,48A24,24,0,1,1,48,24,24.027,24.027,0,0,1,24,48Zm.313-20.5c-1.151,3.4-2.331,6.853-3.473,10.2l-.013.037-.011.031q-1.154,3.38-2.312,6.776a18.757,18.757,0,0,0,5.5.793,20.325,20.325,0,0,0,6.5-1.08ZM4.391,15.384h0A20.934,20.934,0,0,0,2.663,24,21.585,21.585,0,0,0,14.641,43.416C11.969,36.149,9.269,28.75,6.658,21.594l-.046-.125L4.391,15.384ZM42.817,13.8h0c.725,5.542-.383,8.48-.979,10.059L41.783,24c-1.718,4.526-3.451,9.163-5.127,13.647l-.06.161q-.91,2.435-1.82,4.865A21.511,21.511,0,0,0,45.337,24,21.125,21.125,0,0,0,42.817,13.8Zm-29.632-1.73c.594,0,.9.65.938,1.253.037.628-.206,1.337-.826,1.411-.015,0-1.507.145-2.808.192l8.182,21.961L23.017,22.9l-3.024-8.184-2.21-.192c-.593-.023-.844-.735-.83-1.43.015-.744.339-1.5.931-1.5h.044c.035,0,3.543.287,5.592.287,2.209,0,5.569-.276,5.711-.287h.045c.591,0,.9.723.928,1.394.034.7-.21,1.473-.828,1.534a4.969,4.969,0,0,1-1.968.408l7.273,20.088c.029-.075,3.359-8.5,3.359-12a11.5,11.5,0,0,0-1.32-5.906c-.134-.22-.268-.436-.4-.649-.944-1.521-1.76-2.835-1.76-4.39a3.592,3.592,0,0,1,3.507-3.828,2.845,2.845,0,0,1,.452.035A21.521,21.521,0,0,0,6.072,12.312c.5.024.956.024,1.393.024,2.188,0,5.653-.261,5.687-.264Z" transform="translate(0 0)" fill="#bebebe"/></clipPath><clipPath id="fk"><rect width="49.998" height="49.998" fill="none"/></clipPath></defs><g transform="translate(-546.582 -31.044)"><g transform="translate(1325.597 227.227)" opacity="0.65"><path d="M26.373,42.2H0V7.911H5.274V36.924h21.1V42.2Zm7.911-7.914H7.911V0H34.284V34.284Z" fill="#bebebe"/></g><g transform="translate(1871.289 102.47)" opacity="0.89"><path d="M26.373,42.2H0V7.911H5.274V36.924h21.1V42.2Zm7.911-7.914H7.911V0H34.284V34.284Z" fill="#bebebe"/></g><g transform="translate(855.141 62.472)" opacity="0.5"><path d="M26.373,42.2H0V7.911H5.274V36.924h21.1V42.2Zm7.911-7.914H7.911V0H34.284V34.284Z" fill="#bebebe"/></g><path d="M8.1,83.306a7.937,7.937,0,0,1-5.709-2.4A7.952,7.952,0,0,1,0,75.233a8.094,8.094,0,0,1,2.394-5.8l6.7-6.7V41.743c0-6.29,2.244-17.34,5.9-21.049l4.919-6.057,48.71,48.745-6.432,4.543c-3.7,3.7-13.852,6.276-20.655,6.276H20.557l-6.7,6.71A8.073,8.073,0,0,1,8.1,83.306ZM64.3,52.289l0,0L54.238,42.171,71.754,24.643A3.676,3.676,0,0,1,74.467,23.6a8.361,8.361,0,0,1,5.666,2.721,8.378,8.378,0,0,1,2.721,5.684,3.67,3.67,0,0,1-1.042,2.7L64.3,52.285ZM40.721,28.65l0,0-10.1-10.114L48.131,1a3.793,3.793,0,0,1,2.714-1,8.445,8.445,0,0,1,5.718,2.732,8.373,8.373,0,0,1,2.718,5.683,3.677,3.677,0,0,1-1.044,2.706L40.725,28.646Z" transform="translate(1191.317 359.602)" fill="#bebebe" opacity="0.35"/><path d="M5.309,54.735a5.193,5.193,0,0,1-3.741-1.574A5.232,5.232,0,0,1,0,49.432a5.326,5.326,0,0,1,1.568-3.808l4.39-4.405V27.427c0-4.133,1.47-11.393,3.864-13.83l3.223-3.98L44.958,41.644l-4.214,2.985c-2.421,2.43-9.075,4.124-13.532,4.124H13.469L9.076,53.161A5.282,5.282,0,0,1,5.309,54.735ZM42.124,34.356l0,0-6.587-6.645L47.011,16.191a2.4,2.4,0,0,1,1.777-.684A5.472,5.472,0,0,1,52.5,17.295a5.511,5.511,0,0,1,1.783,3.735A2.415,2.415,0,0,1,53.6,22.8L42.127,34.354ZM26.679,18.824l0,0-6.619-6.645L31.534.659A2.481,2.481,0,0,1,33.312,0a5.526,5.526,0,0,1,3.746,1.795,5.508,5.508,0,0,1,1.78,3.734,2.42,2.42,0,0,1-.684,1.778L26.682,18.822Z" transform="translate(1815.101 437.694)" fill="#bebebe" opacity="0.65"/><path d="M5.309,54.735a5.193,5.193,0,0,1-3.741-1.574A5.232,5.232,0,0,1,0,49.432a5.326,5.326,0,0,1,1.568-3.808l4.39-4.405V27.427c0-4.133,1.47-11.393,3.864-13.83l3.223-3.98L44.958,41.644l-4.214,2.985c-2.421,2.43-9.075,4.124-13.532,4.124H13.469L9.076,53.161A5.282,5.282,0,0,1,5.309,54.735ZM42.124,34.356l0,0-6.587-6.645L47.011,16.191a2.4,2.4,0,0,1,1.777-.684A5.472,5.472,0,0,1,52.5,17.295a5.511,5.511,0,0,1,1.783,3.735A2.415,2.415,0,0,1,53.6,22.8L42.127,34.354ZM26.679,18.824l0,0-6.619-6.645L31.534.659A2.481,2.481,0,0,1,33.312,0a5.526,5.526,0,0,1,3.746,1.795,5.508,5.508,0,0,1,1.78,3.734,2.42,2.42,0,0,1-.684,1.778L26.682,18.822Z" transform="translate(546.582 37.711)" fill="#bebebe" opacity="0.16"/><g transform="translate(953.232 36.758)" opacity="0.65"><path d="M36.663,81.785C18.4,81.785.182,76.122,0,76.065V63.454A22.97,22.97,0,0,1,6.515,47.836a22.2,22.2,0,0,1,16.124-7.071L36.663,49.73l13.778-9.216c5.666,0,11.49,2.658,15.982,7.292,4.389,4.528,6.907,10.231,6.907,15.647V76.065l-.034.014C71.351,76.663,53.8,81.785,36.663,81.785Zm0-45.067c-5.938,0-9.38-4.738-11.222-8.712a34.36,34.36,0,0,1-2.6-8.712c-.863-5.724.48-11.3,3.594-14.92A12.842,12.842,0,0,1,36.512,0,12.907,12.907,0,0,1,46.645,4.388C49.756,8,51.1,13.575,50.236,19.293a34.008,34.008,0,0,1-2.474,8.712C45.977,31.98,42.6,36.718,36.663,36.718Z" fill="#bebebe"/></g><g transform="translate(1437.021 466.265)" opacity="0.5"><path d="M23.807,53.107A91.6,91.6,0,0,1,0,49.393V41.2A14.916,14.916,0,0,1,4.23,31.063,14.415,14.415,0,0,1,14.7,26.471l9.107,5.822,8.947-5.984a14.759,14.759,0,0,1,10.378,4.735A14.984,14.984,0,0,1,47.617,41.2v8.189l-.022.009C46.332,49.781,34.933,53.107,23.807,53.107Zm0-29.265c-3.856,0-6.091-3.076-7.287-5.657a22.312,22.312,0,0,1-1.689-5.657A12.193,12.193,0,0,1,17.164,2.84,8.339,8.339,0,0,1,23.709,0a8.381,8.381,0,0,1,6.58,2.85,12.18,12.18,0,0,1,2.332,9.678,22.083,22.083,0,0,1-1.607,5.657C29.855,20.766,27.664,23.843,23.807,23.843Z" fill="#bebebe"/></g><g transform="translate(975.135 319.604)" opacity="0.22"><path d="M23.807,53.107A91.6,91.6,0,0,1,0,49.393V41.2A14.916,14.916,0,0,1,4.23,31.063,14.415,14.415,0,0,1,14.7,26.471l9.107,5.822,8.947-5.984a14.759,14.759,0,0,1,10.378,4.735A14.984,14.984,0,0,1,47.617,41.2v8.189l-.022.009C46.332,49.781,34.933,53.107,23.807,53.107Zm0-29.265c-3.856,0-6.091-3.076-7.287-5.657a22.312,22.312,0,0,1-1.689-5.657A12.193,12.193,0,0,1,17.164,2.84,8.339,8.339,0,0,1,23.709,0a8.381,8.381,0,0,1,6.58,2.85,12.18,12.18,0,0,1,2.332,9.678,22.083,22.083,0,0,1-1.607,5.657C29.855,20.766,27.664,23.843,23.807,23.843Z" fill="#bebebe"/></g><g transform="translate(1650.346 588.164)" opacity="0.5"><path d="M51.764,88H36.236V76.716a33.054,33.054,0,0,1-9.886-4.09L18.374,80.6,7.4,69.621l7.971-7.971a33.055,33.055,0,0,1-4.09-9.886H0V36.39H11.232a33.7,33.7,0,0,1,4.142-10.04L7.4,18.374,18.272,7.505l7.971,7.971a33.411,33.411,0,0,1,9.993-4.193V0H51.764V11.284a33.054,33.054,0,0,1,9.886,4.09L69.621,7.4,80.6,18.374,72.626,26.35a33.7,33.7,0,0,1,4.142,10.04H88V51.764H76.716a33.053,33.053,0,0,1-4.193,9.993l7.971,7.971L69.621,80.6,61.65,72.626a33.056,33.056,0,0,1-9.886,4.09V88ZM44,28.47A15.53,15.53,0,1,0,59.53,44,15.545,15.545,0,0,0,44,28.47Z" transform="translate(-0.346 -0.164)" fill="#bebebe"/><g clip-path="url(#g)"><g transform="translate(-14.13 -12.416)" clip-path="url(#h)"><rect width="111.7" height="115.605" fill="#bebebe"/></g></g></g><g transform="translate(1810.815 47.233)" opacity="0.89"><path d="M13.229,55.864H3.307L0,49.247,26.294,23.813a16.5,16.5,0,1,1,26.461,4.432,16.348,16.348,0,0,1-11.64,4.81,16.785,16.785,0,0,1-6.849-1.47L28.08,42.534l-9.889,1.024-4.961,12.3Zm31.223-47.3a4.415,4.415,0,1,0,4.4,4.4A4.4,4.4,0,0,0,44.452,8.566Z" transform="translate(0 0)" fill="#bebebe"/></g><g transform="translate(1461 250)" opacity="0.72" clip-path="url(#j)"><path d="M71.5,143A71.5,71.5,0,1,1,143,71.5,71.581,71.581,0,0,1,71.5,143Zm.933-61.062C69,92.054,65.487,102.353,62.086,112.312l-.037.109-.032.094q-3.439,10.07-6.887,20.188A55.88,55.88,0,0,0,71.5,135.066a60.553,60.553,0,0,0,19.376-3.218ZM13.082,45.83h0A62.365,62.365,0,0,0,7.934,71.5c0,24.665,14.006,47.37,35.682,57.845-7.96-21.65-16-43.695-23.782-65.013l-.136-.373q-3.309-9.068-6.616-18.128Zm114.476-4.712-.008,0c2.16,16.51-1.142,25.264-2.916,29.967l-.155.411c-5.117,13.485-10.281,27.3-15.274,40.656l-.18.481q-2.712,7.255-5.422,14.495c19.4-11.2,31.461-32.508,31.461-55.631A62.935,62.935,0,0,0,127.559,41.119ZM39.28,35.964c1.769,0,2.689,1.935,2.8,3.733.111,1.87-.612,3.983-2.461,4.2-.045,0-4.49.433-8.366.573L55.625,109.9,68.572,68.212,59.563,43.829l-6.583-.573c-1.765-.07-2.514-2.191-2.473-4.261.044-2.217,1.011-4.462,2.774-4.462.043,0,.086,0,.13,0,.105.009,10.557.856,16.66.856,6.582,0,16.591-.821,17.014-.856q.067,0,.134,0c1.759,0,2.667,2.153,2.766,4.153.1,2.074-.626,4.389-2.468,4.571a14.8,14.8,0,0,1-5.862,1.216l21.667,59.846c.087-.222,10.007-25.313,10.007-35.747,0-7.328-1.249-12.918-3.932-17.593-.4-.657-.8-1.3-1.192-1.933-2.813-4.533-5.243-8.447-5.243-13.08,0-7.408,5.383-11.406,10.448-11.406a8.476,8.476,0,0,1,1.347.106A64.115,64.115,0,0,0,18.089,36.68c1.5.071,2.847.071,4.151.071,6.52,0,16.84-.777,16.944-.785Z" transform="translate(0)" fill="#bebebe"/><g transform="translate(0 0)" clip-path="url(#k)"><g transform="translate(-3.571 -3.571)" clip-path="url(#l)"><rect width="149.995" height="149.995" fill="#bebebe"/></g></g></g><g transform="translate(1646 299)" opacity="0.72"><path d="M24,48A24,24,0,1,1,48,24,24.027,24.027,0,0,1,24,48Zm6.122-35.877L12.307,23.909,30.122,35.877Z" transform="translate(0)" fill="#bebebe"/></g><g transform="translate(1285 527)" opacity="0.22"><path d="M24,48A24,24,0,1,1,48,24,24.027,24.027,0,0,1,24,48Zm6.122-35.877L12.307,23.909,30.122,35.877Z" transform="translate(0)" fill="#bebebe"/></g><g transform="translate(691 220)" opacity="0.07"><path d="M24,48A24,24,0,1,1,48,24,24.027,24.027,0,0,1,24,48Zm6.122-35.877L12.307,23.909,30.122,35.877Z" transform="translate(0)" fill="#bebebe"/></g><g transform="translate(1847 581)" opacity="0.5"><path d="M24,48A24,24,0,1,1,48,24,24.027,24.027,0,0,1,24,48Zm6.122-35.877L12.307,23.909,30.122,35.877Z" transform="translate(0)" fill="#bebebe"/></g><g transform="translate(905 191)" opacity="0.5"><path d="M24,48A24,24,0,1,1,48,24,24.027,24.027,0,0,1,24,48Zm6.122-35.877L12.307,23.909,30.122,35.877Z" transform="translate(0)" fill="#bebebe"/></g><g transform="translate(1530.351 71.995)" opacity="0.83"><path d="M5.952,0H32.737a5.97,5.97,0,0,1,5.952,5.952V26.785a5.97,5.97,0,0,1-5.952,5.952H26.785L11.9,47.617V32.737H5.952A5.97,5.97,0,0,1,0,26.785V5.952A5.97,5.97,0,0,1,5.952,0Z" fill="#bebebe"/></g><g transform="translate(1773.198 604.354)" opacity="0.5"><path d="M5.952,0H32.737a5.97,5.97,0,0,1,5.952,5.952V26.785a5.97,5.97,0,0,1-5.952,5.952H26.785L11.9,47.617V32.737H5.952A5.97,5.97,0,0,1,0,26.785V5.952A5.97,5.97,0,0,1,5.952,0Z" fill="#bebebe"/></g><g transform="translate(1013.229 413.886)" opacity="0.07"><path d="M5.952,0H32.737a5.97,5.97,0,0,1,5.952,5.952V26.785a5.97,5.97,0,0,1-5.952,5.952H26.785L11.9,47.617V32.737H5.952A5.97,5.97,0,0,1,0,26.785V5.952A5.97,5.97,0,0,1,5.952,0Z" fill="#bebebe"/></g><g transform="matrix(-0.998, -0.07, 0.07, -0.998, 1266.436, 290.297)" opacity="0.65"><path d="M3.733,40.838A3.643,3.643,0,0,1,0,37.118c-.006-2.35,1.756-5.519,4.713-8.476A24.147,24.147,0,0,1,7.4,26.406c.613-.456,1.245-.9,1.855-1.33a30.642,30.642,0,0,0,4.03-3.17,2.679,2.679,0,0,0,0-3.781l-2.823-2.82a2.66,2.66,0,0,1,0-3.755l4.713-4.713L34,25.661l-4.711,4.711a2.649,2.649,0,0,1-3.755,0l-2.823-2.82a2.649,2.649,0,0,0-3.755,0,29.836,29.836,0,0,0-3.305,4.2c-.387.554-.786,1.126-1.192,1.681a25.2,25.2,0,0,1-2.264,2.717C9.235,39.086,6.072,40.838,3.733,40.838ZM35.889,23.771l0,0L17.067,4.946,21.059.954A4.367,4.367,0,0,1,24.237,0,11.89,11.89,0,0,1,30.4,1.805a31.6,31.6,0,0,1,3.084,2.342A26.06,26.06,0,0,0,38.153,7.4c2.539,1.377,5.1,2.613,8.547,2.613A16.487,16.487,0,0,0,50,9.66L35.891,23.769Z" transform="translate(0)" fill="#bebebe"/></g><g transform="matrix(-0.998, -0.07, 0.07, -0.998, 833.12, 245.537)" opacity="0.22"><path d="M3.733,40.838A3.643,3.643,0,0,1,0,37.118c-.006-2.35,1.756-5.519,4.713-8.476A24.147,24.147,0,0,1,7.4,26.406c.613-.456,1.245-.9,1.855-1.33a30.642,30.642,0,0,0,4.03-3.17,2.679,2.679,0,0,0,0-3.781l-2.823-2.82a2.66,2.66,0,0,1,0-3.755l4.713-4.713L34,25.661l-4.711,4.711a2.649,2.649,0,0,1-3.755,0l-2.823-2.82a2.649,2.649,0,0,0-3.755,0,29.836,29.836,0,0,0-3.305,4.2c-.387.554-.786,1.126-1.192,1.681a25.2,25.2,0,0,1-2.264,2.717C9.235,39.086,6.072,40.838,3.733,40.838ZM35.889,23.771l0,0L17.067,4.946,21.059.954A4.367,4.367,0,0,1,24.237,0,11.89,11.89,0,0,1,30.4,1.805a31.6,31.6,0,0,1,3.084,2.342A26.06,26.06,0,0,0,38.153,7.4c2.539,1.377,5.1,2.613,8.547,2.613A16.487,16.487,0,0,0,50,9.66L35.891,23.769Z" transform="translate(0)" fill="#bebebe"/></g><g transform="matrix(-0.998, -0.07, 0.07, -0.998, 1702.608, 559.81)" opacity="0.5"><path d="M3.733,40.838A3.643,3.643,0,0,1,0,37.118c-.006-2.35,1.756-5.519,4.713-8.476A24.147,24.147,0,0,1,7.4,26.406c.613-.456,1.245-.9,1.855-1.33a30.642,30.642,0,0,0,4.03-3.17,2.679,2.679,0,0,0,0-3.781l-2.823-2.82a2.66,2.66,0,0,1,0-3.755l4.713-4.713L34,25.661l-4.711,4.711a2.649,2.649,0,0,1-3.755,0l-2.823-2.82a2.649,2.649,0,0,0-3.755,0,29.836,29.836,0,0,0-3.305,4.2c-.387.554-.786,1.126-1.192,1.681a25.2,25.2,0,0,1-2.264,2.717C9.235,39.086,6.072,40.838,3.733,40.838ZM35.889,23.771l0,0L17.067,4.946,21.059.954A4.367,4.367,0,0,1,24.237,0,11.89,11.89,0,0,1,30.4,1.805a31.6,31.6,0,0,1,3.084,2.342A26.06,26.06,0,0,0,38.153,7.4c2.539,1.377,5.1,2.613,8.547,2.613A16.487,16.487,0,0,0,50,9.66L35.891,23.769Z" transform="translate(0)" fill="#bebebe"/></g><g transform="matrix(-0.998, -0.07, 0.07, -0.998, 1719.751, 270.298)" opacity="0.72"><path d="M3.733,40.838A3.643,3.643,0,0,1,0,37.118c-.006-2.35,1.756-5.519,4.713-8.476A24.147,24.147,0,0,1,7.4,26.406c.613-.456,1.245-.9,1.855-1.33a30.642,30.642,0,0,0,4.03-3.17,2.679,2.679,0,0,0,0-3.781l-2.823-2.82a2.66,2.66,0,0,1,0-3.755l4.713-4.713L34,25.661l-4.711,4.711a2.649,2.649,0,0,1-3.755,0l-2.823-2.82a2.649,2.649,0,0,0-3.755,0,29.836,29.836,0,0,0-3.305,4.2c-.387.554-.786,1.126-1.192,1.681a25.2,25.2,0,0,1-2.264,2.717C9.235,39.086,6.072,40.838,3.733,40.838ZM35.889,23.771l0,0L17.067,4.946,21.059.954A4.367,4.367,0,0,1,24.237,0,11.89,11.89,0,0,1,30.4,1.805a31.6,31.6,0,0,1,3.084,2.342A26.06,26.06,0,0,0,38.153,7.4c2.539,1.377,5.1,2.613,8.547,2.613A16.487,16.487,0,0,0,50,9.66L35.891,23.769Z" transform="translate(0)" fill="#bebebe"/></g><g transform="matrix(-0.998, -0.07, 0.07, -0.998, 1479.76, 170.302)" opacity="0.72"><path d="M3.733,40.838A3.643,3.643,0,0,1,0,37.118c-.006-2.35,1.756-5.519,4.713-8.476A24.147,24.147,0,0,1,7.4,26.406c.613-.456,1.245-.9,1.855-1.33a30.642,30.642,0,0,0,4.03-3.17,2.679,2.679,0,0,0,0-3.781l-2.823-2.82a2.66,2.66,0,0,1,0-3.755l4.713-4.713L34,25.661l-4.711,4.711a2.649,2.649,0,0,1-3.755,0l-2.823-2.82a2.649,2.649,0,0,0-3.755,0,29.836,29.836,0,0,0-3.305,4.2c-.387.554-.786,1.126-1.192,1.681a25.2,25.2,0,0,1-2.264,2.717C9.235,39.086,6.072,40.838,3.733,40.838ZM35.889,23.771l0,0L17.067,4.946,21.059.954A4.367,4.367,0,0,1,24.237,0,11.89,11.89,0,0,1,30.4,1.805a31.6,31.6,0,0,1,3.084,2.342A26.06,26.06,0,0,0,38.153,7.4c2.539,1.377,5.1,2.613,8.547,2.613A16.487,16.487,0,0,0,50,9.66L35.891,23.769Z" transform="translate(0)" fill="#bebebe"/></g><g transform="matrix(-0.998, -0.07, 0.07, -0.998, 1837.841, 569.333)" opacity="0.65"><path d="M3.733,40.838A3.643,3.643,0,0,1,0,37.118c-.006-2.35,1.756-5.519,4.713-8.476A24.147,24.147,0,0,1,7.4,26.406c.613-.456,1.245-.9,1.855-1.33a30.642,30.642,0,0,0,4.03-3.17,2.679,2.679,0,0,0,0-3.781l-2.823-2.82a2.66,2.66,0,0,1,0-3.755l4.713-4.713L34,25.661l-4.711,4.711a2.649,2.649,0,0,1-3.755,0l-2.823-2.82a2.649,2.649,0,0,0-3.755,0,29.836,29.836,0,0,0-3.305,4.2c-.387.554-.786,1.126-1.192,1.681a25.2,25.2,0,0,1-2.264,2.717C9.235,39.086,6.072,40.838,3.733,40.838ZM35.889,23.771l0,0L17.067,4.946,21.059.954A4.367,4.367,0,0,1,24.237,0,11.89,11.89,0,0,1,30.4,1.805a31.6,31.6,0,0,1,3.084,2.342A26.06,26.06,0,0,0,38.153,7.4c2.539,1.377,5.1,2.613,8.547,2.613A16.487,16.487,0,0,0,50,9.66L35.891,23.769Z" transform="translate(0)" fill="#bebebe"/></g><g transform="translate(1509.399 418.647)" opacity="0.65"><path d="M41.565,47.617H4.7V29.277l18.434-18.4,18.431,18.4v18.34ZM16.988,29.186h0V44.545h12.29V29.186ZM3.255,26.39l0,0L0,23.134,23.134,0,35.421,12.287V6.144h6.144v12.29l4.7,4.7-3.252,3.252L23.134,6.514,3.257,26.388Z" transform="translate(0 0)" fill="#bebebe"/></g><g transform="translate(1792.245 748.158)" opacity="0.35"><path d="M41.565,47.617H4.7V29.277l18.434-18.4,18.431,18.4v18.34ZM16.988,29.186h0V44.545h12.29V29.186ZM3.255,26.39l0,0L0,23.134,23.134,0,35.421,12.287V6.144h6.144v12.29l4.7,4.7-3.252,3.252L23.134,6.514,3.257,26.388Z" transform="translate(0 0)" fill="#bebebe"/></g><g transform="translate(1847.481 284.367)" opacity="0.72"><path d="M41.565,47.617H4.7V29.277l18.434-18.4,18.431,18.4v18.34ZM16.988,29.186h0V44.545h12.29V29.186ZM3.255,26.39l0,0L0,23.134,23.134,0,35.421,12.287V6.144h6.144v12.29l4.7,4.7-3.252,3.252L23.134,6.514,3.257,26.388Z" transform="translate(0 0)" fill="#bebebe"/></g><g transform="translate(1621.776 41.52)" opacity="0.89"><path d="M52.16,47.617H6.448a29.3,29.3,0,1,1,45.713,0ZM36.629,14.65,24.287,31.318a7.258,7.258,0,0,0-2.308,5.311,7.325,7.325,0,1,0,14.65,0ZM51.283,25.641A3.663,3.663,0,1,0,54.946,29.3,3.668,3.668,0,0,0,51.283,25.641Zm-43.958,0A3.663,3.663,0,1,0,10.988,29.3,3.667,3.667,0,0,0,7.325,25.641ZM43.954,10.988a3.664,3.664,0,1,0,3.663,3.663A3.667,3.667,0,0,0,43.954,10.988Zm-29.3,0a3.664,3.664,0,1,0,3.666,3.663A3.667,3.667,0,0,0,14.65,10.988ZM29.3,3.663a3.663,3.663,0,1,0,3.663,3.663A3.667,3.667,0,0,0,29.3,3.663Zm0,36.629a3.663,3.663,0,1,1,3.663-3.663A3.667,3.667,0,0,1,29.3,40.292Z" transform="translate(0)" fill="#bebebe"/></g><g transform="translate(1041.799 259.606)" opacity="0.5"><path d="M52.16,47.617H6.448a29.3,29.3,0,1,1,45.713,0ZM36.629,14.65,24.287,31.318a7.258,7.258,0,0,0-2.308,5.311,7.325,7.325,0,1,0,14.65,0ZM51.283,25.641A3.663,3.663,0,1,0,54.946,29.3,3.668,3.668,0,0,0,51.283,25.641Zm-43.958,0A3.663,3.663,0,1,0,10.988,29.3,3.667,3.667,0,0,0,7.325,25.641ZM43.954,10.988a3.664,3.664,0,1,0,3.663,3.663A3.667,3.667,0,0,0,43.954,10.988Zm-29.3,0a3.664,3.664,0,1,0,3.666,3.663A3.667,3.667,0,0,0,14.65,10.988ZM29.3,3.663a3.663,3.663,0,1,0,3.663,3.663A3.667,3.667,0,0,0,29.3,3.663Zm0,36.629a3.663,3.663,0,1,1,3.663-3.663A3.667,3.667,0,0,1,29.3,40.292Z" transform="translate(0)" fill="#bebebe"/></g><g transform="translate(1273 304)" opacity="0.65"><path d="M30.138,35a4.862,4.862,0,1,1,0-9.723,5.319,5.319,0,0,1,.973.1V15.556H25.277V9.723H35V30.138A4.867,4.867,0,0,1,30.138,35ZM16.527,35a4.862,4.862,0,0,1,0-9.723,5.319,5.319,0,0,1,.973.1V23.333h3.888v6.806A4.867,4.867,0,0,1,16.527,35Zm4.862-13.612H1.944A1.946,1.946,0,0,1,0,19.444V5.833A1.946,1.946,0,0,1,1.944,3.888H5.192L7.777,0h7.779l2.586,3.888h3.246a1.946,1.946,0,0,1,1.944,1.944V19.444A1.946,1.946,0,0,1,21.388,21.388ZM11.667,6.806a4.861,4.861,0,1,0,4.86,4.861A4.867,4.867,0,0,0,11.667,6.806Z" transform="translate(0)" fill="#bebebe"/></g><g transform="translate(1432 713)" opacity="0.07"><path d="M30.138,35a4.862,4.862,0,1,1,0-9.723,5.319,5.319,0,0,1,.973.1V15.556H25.277V9.723H35V30.138A4.867,4.867,0,0,1,30.138,35ZM16.527,35a4.862,4.862,0,0,1,0-9.723,5.319,5.319,0,0,1,.973.1V23.333h3.888v6.806A4.867,4.867,0,0,1,16.527,35Zm4.862-13.612H1.944A1.946,1.946,0,0,1,0,19.444V5.833A1.946,1.946,0,0,1,1.944,3.888H5.192L7.777,0h7.779l2.586,3.888h3.246a1.946,1.946,0,0,1,1.944,1.944V19.444A1.946,1.946,0,0,1,21.388,21.388ZM11.667,6.806a4.861,4.861,0,1,0,4.86,4.861A4.867,4.867,0,0,0,11.667,6.806Z" transform="translate(0)" fill="#bebebe"/></g><g transform="translate(1671 442)" opacity="0.65"><path d="M30.138,35a4.862,4.862,0,1,1,0-9.723,5.319,5.319,0,0,1,.973.1V15.556H25.277V9.723H35V30.138A4.867,4.867,0,0,1,30.138,35ZM16.527,35a4.862,4.862,0,0,1,0-9.723,5.319,5.319,0,0,1,.973.1V23.333h3.888v6.806A4.867,4.867,0,0,1,16.527,35Zm4.862-13.612H1.944A1.946,1.946,0,0,1,0,19.444V5.833A1.946,1.946,0,0,1,1.944,3.888H5.192L7.777,0h7.779l2.586,3.888h3.246a1.946,1.946,0,0,1,1.944,1.944V19.444A1.946,1.946,0,0,1,21.388,21.388ZM11.667,6.806a4.861,4.861,0,1,0,4.86,4.861A4.867,4.867,0,0,0,11.667,6.806Z" transform="translate(0)" fill="#bebebe"/></g><g transform="translate(1108 490)" opacity="0.07"><path d="M30.138,35a4.862,4.862,0,1,1,0-9.723,5.319,5.319,0,0,1,.973.1V15.556H25.277V9.723H35V30.138A4.867,4.867,0,0,1,30.138,35ZM16.527,35a4.862,4.862,0,0,1,0-9.723,5.319,5.319,0,0,1,.973.1V23.333h3.888v6.806A4.867,4.867,0,0,1,16.527,35Zm4.862-13.612H1.944A1.946,1.946,0,0,1,0,19.444V5.833A1.946,1.946,0,0,1,1.944,3.888H5.192L7.777,0h7.779l2.586,3.888h3.246a1.946,1.946,0,0,1,1.944,1.944V19.444A1.946,1.946,0,0,1,21.388,21.388ZM11.667,6.806a4.861,4.861,0,1,0,4.86,4.861A4.867,4.867,0,0,0,11.667,6.806Z" transform="translate(0)" fill="#bebebe"/></g><g transform="translate(1065.608 346.27)" opacity="0.35"><path d="M26.373,42.2H0V7.911H5.274V36.924h21.1V42.2Zm7.911-7.914H7.911V0H34.284V34.284Z" fill="#bebebe"/></g><g transform="translate(1868.432 499.597)" opacity="0.65"><path d="M26.373,42.2H0V7.911H5.274V36.924h21.1V42.2Zm7.911-7.914H7.911V0H34.284V34.284Z" fill="#bebebe"/></g><g transform="translate(1509.399 688.16)" opacity="0.22"><path d="M26.373,42.2H0V7.911H5.274V36.924h21.1V42.2Zm7.911-7.914H7.911V0H34.284V34.284Z" fill="#bebebe"/></g><g transform="translate(1218.935 31.044)" opacity="0.72"><path d="M26.373,42.2H0V7.911H5.274V36.924h21.1V42.2Zm7.911-7.914H7.911V0H34.284V34.284Z" fill="#bebebe"/></g><g transform="translate(1098 410)" opacity="0.22"><path d="M25.013,5.029,30.042,0,47.617,17.548,42.56,22.577a7.547,7.547,0,0,0-9.423.995l-2.073,2.073a7.539,7.539,0,0,0-.967,9.423L25.04,40.1l-6.66-6.66-7.737,7.71C9.482,42.308,1.3,48.636.142,47.475s5.14-9.368,6.3-10.529l7.71-7.71-6.66-6.687L12.55,17.52a7.469,7.469,0,0,0,9.4-.995l2.073-2.073a7.5,7.5,0,0,0,.995-9.423Z" transform="translate(0 0)" fill="#bebebe"/></g><g transform="translate(768 51)" opacity="0.5"><path d="M25.013,5.029,30.042,0,47.617,17.548,42.56,22.577a7.547,7.547,0,0,0-9.423.995l-2.073,2.073a7.539,7.539,0,0,0-.967,9.423L25.04,40.1l-6.66-6.66-7.737,7.71C9.482,42.308,1.3,48.636.142,47.475s5.14-9.368,6.3-10.529l7.71-7.71-6.66-6.687L12.55,17.52a7.469,7.469,0,0,0,9.4-.995l2.073-2.073a7.5,7.5,0,0,0,.995-9.423Z" transform="translate(0 0)" fill="#bebebe"/></g><g transform="translate(1086 97)" opacity="0.65"><path d="M25.013,5.029,30.042,0,47.617,17.548,42.56,22.577a7.547,7.547,0,0,0-9.423.995l-2.073,2.073a7.539,7.539,0,0,0-.967,9.423L25.04,40.1l-6.66-6.66-7.737,7.71C9.482,42.308,1.3,48.636.142,47.475s5.14-9.368,6.3-10.529l7.71-7.71-6.66-6.687L12.55,17.52a7.469,7.469,0,0,0,9.4-.995l2.073-2.073a7.5,7.5,0,0,0,.995-9.423Z" transform="translate(0 0)" fill="#bebebe"/></g><g transform="translate(1401 393)" opacity="0.65"><path d="M25.013,5.029,30.042,0,47.617,17.548,42.56,22.577a7.547,7.547,0,0,0-9.423.995l-2.073,2.073a7.539,7.539,0,0,0-.967,9.423L25.04,40.1l-6.66-6.66-7.737,7.71C9.482,42.308,1.3,48.636.142,47.475s5.14-9.368,6.3-10.529l7.71-7.71-6.66-6.687L12.55,17.52a7.469,7.469,0,0,0,9.4-.995l2.073-2.073a7.5,7.5,0,0,0,.995-9.423Z" transform="translate(0 0)" fill="#bebebe"/></g><g transform="translate(1807 657)" opacity="0.5"><path d="M25.013,5.029,30.042,0,47.617,17.548,42.56,22.577a7.547,7.547,0,0,0-9.423.995l-2.073,2.073a7.539,7.539,0,0,0-.967,9.423L25.04,40.1l-6.66-6.66-7.737,7.71C9.482,42.308,1.3,48.636.142,47.475s5.14-9.368,6.3-10.529l7.71-7.71-6.66-6.687L12.55,17.52a7.469,7.469,0,0,0,9.4-.995l2.073-2.073a7.5,7.5,0,0,0,.995-9.423Z" transform="translate(0 0)" fill="#bebebe"/></g><g transform="translate(1717 351)" opacity="0.72"><path d="M25.013,5.029,30.042,0,47.617,17.548,42.56,22.577a7.547,7.547,0,0,0-9.423.995l-2.073,2.073a7.539,7.539,0,0,0-.967,9.423L25.04,40.1l-6.66-6.66-7.737,7.71C9.482,42.308,1.3,48.636.142,47.475s5.14-9.368,6.3-10.529l7.71-7.71-6.66-6.687L12.55,17.52a7.469,7.469,0,0,0,9.4-.995l2.073-2.073a7.5,7.5,0,0,0,.995-9.423Z" transform="translate(0 0)" fill="#bebebe"/></g><g transform="translate(1525.589 590.069)" opacity="0.35"><path d="M4.657,47.843a4.563,4.563,0,0,1-3.281-1.376A4.565,4.565,0,0,1,0,43.207a4.647,4.647,0,0,1,1.376-3.328l3.851-3.851V23.973c0-3.612,1.289-9.959,3.389-12.089l2.827-3.479L39.437,36.4l-3.7,2.609c-2.124,2.124-7.961,3.6-11.871,3.6H11.815L7.961,46.467A4.641,4.641,0,0,1,4.657,47.843ZM36.951,30.03l0,0-5.778-5.809L41.238,14.152a2.113,2.113,0,0,1,1.559-.6,4.807,4.807,0,0,1,3.256,1.562,4.81,4.81,0,0,1,1.564,3.264,2.107,2.107,0,0,1-.6,1.551l-10.065,10.1ZM23.4,16.454l0,0-5.806-5.809L27.662.576A2.181,2.181,0,0,1,29.221,0a4.855,4.855,0,0,1,3.286,1.569A4.807,4.807,0,0,1,34.07,4.833a2.111,2.111,0,0,1-.6,1.554L23.4,16.452Z" transform="translate(0 0)" fill="#bebebe"/></g><g transform="translate(1083.703 176.753)" opacity="0.65"><path d="M4.657,47.843a4.563,4.563,0,0,1-3.281-1.376A4.565,4.565,0,0,1,0,43.207a4.647,4.647,0,0,1,1.376-3.328l3.851-3.851V23.973c0-3.612,1.289-9.959,3.389-12.089l2.827-3.479L39.437,36.4l-3.7,2.609c-2.124,2.124-7.961,3.6-11.871,3.6H11.815L7.961,46.467A4.641,4.641,0,0,1,4.657,47.843ZM36.951,30.03l0,0-5.778-5.809L41.238,14.152a2.113,2.113,0,0,1,1.559-.6,4.807,4.807,0,0,1,3.256,1.562,4.81,4.81,0,0,1,1.564,3.264,2.107,2.107,0,0,1-.6,1.551l-10.065,10.1ZM23.4,16.454l0,0-5.806-5.809L27.662.576A2.181,2.181,0,0,1,29.221,0a4.855,4.855,0,0,1,3.286,1.569A4.807,4.807,0,0,1,34.07,4.833a2.111,2.111,0,0,1-.6,1.554L23.4,16.452Z" transform="translate(0 0)" fill="#bebebe"/></g><g transform="translate(1742.723 262.464)" opacity="0.72"><path d="M23.807,53.107A91.6,91.6,0,0,1,0,49.393V41.2A14.916,14.916,0,0,1,4.23,31.063,14.415,14.415,0,0,1,14.7,26.471l9.107,5.822,8.947-5.984a14.759,14.759,0,0,1,10.378,4.735A14.984,14.984,0,0,1,47.617,41.2v8.189l-.022.009C46.332,49.781,34.933,53.107,23.807,53.107Zm0-29.265c-3.856,0-6.091-3.076-7.287-5.657a22.312,22.312,0,0,1-1.689-5.657A12.193,12.193,0,0,1,17.164,2.84,8.339,8.339,0,0,1,23.709,0a8.381,8.381,0,0,1,6.58,2.85,12.18,12.18,0,0,1,2.332,9.678,22.083,22.083,0,0,1-1.607,5.657C29.855,20.766,27.664,23.843,23.807,23.843Z" fill="#bebebe"/></g><g transform="translate(1730.343 677.684)" opacity="0.35"><path d="M23.807,53.107A91.6,91.6,0,0,1,0,49.393V41.2A14.916,14.916,0,0,1,4.23,31.063,14.415,14.415,0,0,1,14.7,26.471l9.107,5.822,8.947-5.984a14.759,14.759,0,0,1,10.378,4.735A14.984,14.984,0,0,1,47.617,41.2v8.189l-.022.009C46.332,49.781,34.933,53.107,23.807,53.107Zm0-29.265c-3.856,0-6.091-3.076-7.287-5.657a22.312,22.312,0,0,1-1.689-5.657A12.193,12.193,0,0,1,17.164,2.84,8.339,8.339,0,0,1,23.709,0a8.381,8.381,0,0,1,6.58,2.85,12.18,12.18,0,0,1,2.332,9.678,22.083,22.083,0,0,1-1.607,5.657C29.855,20.766,27.664,23.843,23.807,23.843Z" fill="#bebebe"/></g><g transform="translate(1448.449 622.449)" opacity="0.22"><path d="M7.686,45.529a7.9,7.9,0,0,1-5.433-2.112,6.85,6.85,0,0,1,0-10.158L22.039,17.838a12.333,12.333,0,0,1,3-14.083A14.089,14.089,0,0,1,34.732,0,14.861,14.861,0,0,1,39.37.74L30.6,8.961l8.557,8.025,8.68-8.167A12.26,12.26,0,0,1,44.559,22.05a14.181,14.181,0,0,1-9.752,3.794,14.549,14.549,0,0,1-5.27-.978L13.119,43.417A7.9,7.9,0,0,1,7.686,45.529Zm0-10.079A3.169,3.169,0,0,0,5.5,36.3a2.755,2.755,0,0,0-.887,2.005A2.823,2.823,0,0,0,5.5,40.374a3.217,3.217,0,0,0,2.18.832,3.142,3.142,0,0,0,2.16-.832,2.79,2.79,0,0,0,.909-2.064A2.724,2.724,0,0,0,9.841,36.3,3.1,3.1,0,0,0,7.681,35.45Z" transform="translate(0 0)" fill="#bebebe"/></g><g transform="translate(1582.73 551.023)" opacity="0.5"><path d="M32.888,32.888H2.349A2.353,2.353,0,0,1,0,30.537V2.349A2.351,2.351,0,0,1,2.349,0H32.888a2.351,2.351,0,0,1,2.349,2.349V30.537A2.353,2.353,0,0,1,32.888,32.888ZM21.142,9.4a2.35,2.35,0,0,0,0,4.7H23.49v12.92a1.174,1.174,0,0,0,2.349,0V14.1h2.349a2.35,2.35,0,0,0,0-4.7H25.839V5.873a1.174,1.174,0,1,0-2.349,0V9.4Zm-14.1,9.4a2.349,2.349,0,1,0,0,4.7H9.4v3.524a1.175,1.175,0,0,0,2.351,0V23.49H14.1a2.349,2.349,0,0,0,0-4.7H11.746V5.873a1.175,1.175,0,0,0-2.351,0v12.92Z" transform="translate(0)" fill="#bebebe"/></g><g transform="translate(1308.455 391.03)" opacity="0.5"><path d="M32.888,32.888H2.349A2.353,2.353,0,0,1,0,30.537V2.349A2.351,2.351,0,0,1,2.349,0H32.888a2.351,2.351,0,0,1,2.349,2.349V30.537A2.353,2.353,0,0,1,32.888,32.888ZM21.142,9.4a2.35,2.35,0,0,0,0,4.7H23.49v12.92a1.174,1.174,0,0,0,2.349,0V14.1h2.349a2.35,2.35,0,0,0,0-4.7H25.839V5.873a1.174,1.174,0,1,0-2.349,0V9.4Zm-14.1,9.4a2.349,2.349,0,1,0,0,4.7H9.4v3.524a1.175,1.175,0,0,0,2.351,0V23.49H14.1a2.349,2.349,0,0,0,0-4.7H11.746V5.873a1.175,1.175,0,0,0-2.351,0v12.92Z" transform="translate(0)" fill="#bebebe"/></g><g transform="translate(1197.984 172.943)" opacity="0.65"><path d="M32.888,32.888H2.349A2.353,2.353,0,0,1,0,30.537V2.349A2.351,2.351,0,0,1,2.349,0H32.888a2.351,2.351,0,0,1,2.349,2.349V30.537A2.353,2.353,0,0,1,32.888,32.888ZM21.142,9.4a2.35,2.35,0,0,0,0,4.7H23.49v12.92a1.174,1.174,0,0,0,2.349,0V14.1h2.349a2.35,2.35,0,0,0,0-4.7H25.839V5.873a1.174,1.174,0,1,0-2.349,0V9.4Zm-14.1,9.4a2.349,2.349,0,1,0,0,4.7H9.4v3.524a1.175,1.175,0,0,0,2.351,0V23.49H14.1a2.349,2.349,0,0,0,0-4.7H11.746V5.873a1.175,1.175,0,0,0-2.351,0v12.92Z" transform="translate(0)" fill="#bebebe"/></g><g transform="translate(1880.813 382.458)" opacity="0.72"><path d="M32.888,32.888H2.349A2.353,2.353,0,0,1,0,30.537V2.349A2.351,2.351,0,0,1,2.349,0H32.888a2.351,2.351,0,0,1,2.349,2.349V30.537A2.353,2.353,0,0,1,32.888,32.888ZM21.142,9.4a2.35,2.35,0,0,0,0,4.7H23.49v12.92a1.174,1.174,0,0,0,2.349,0V14.1h2.349a2.35,2.35,0,0,0,0-4.7H25.839V5.873a1.174,1.174,0,1,0-2.349,0V9.4Zm-14.1,9.4a2.349,2.349,0,1,0,0,4.7H9.4v3.524a1.175,1.175,0,0,0,2.351,0V23.49H14.1a2.349,2.349,0,0,0,0-4.7H11.746V5.873a1.175,1.175,0,0,0-2.351,0v12.92Z" transform="translate(0)" fill="#bebebe"/></g><g transform="translate(786.572 267.225)" opacity="0.16"><path d="M32.888,32.888H2.349A2.353,2.353,0,0,1,0,30.537V2.349A2.351,2.351,0,0,1,2.349,0H32.888a2.351,2.351,0,0,1,2.349,2.349V30.537A2.353,2.353,0,0,1,32.888,32.888ZM21.142,9.4a2.35,2.35,0,0,0,0,4.7H23.49v12.92a1.174,1.174,0,0,0,2.349,0V14.1h2.349a2.35,2.35,0,0,0,0-4.7H25.839V5.873a1.174,1.174,0,1,0-2.349,0V9.4Zm-14.1,9.4a2.349,2.349,0,1,0,0,4.7H9.4v3.524a1.175,1.175,0,0,0,2.351,0V23.49H14.1a2.349,2.349,0,0,0,0-4.7H11.746V5.873a1.175,1.175,0,0,0-2.351,0v12.92Z" transform="translate(0)" fill="#bebebe"/></g><g transform="translate(1507 517)" opacity="0.5"><path d="M12.17,48A12.179,12.179,0,0,1,3.558,27.218l4.32-4.292a11.976,11.976,0,0,1,8.534-3.505,12.691,12.691,0,0,1,3.155.4L7.878,31.538a6,6,0,0,0-1.8,4.278A6.085,6.085,0,0,0,16.462,40.15L28.151,28.433a12.017,12.017,0,0,1-3.077,11.689l-4.292,4.32A12.141,12.141,0,0,1,12.17,48Zm4.288-13.447a3.014,3.014,0,0,1-2.143-5.16L29.366,14.315a3.131,3.131,0,0,1,2.174-.868,3.014,3.014,0,0,1,2.146,5.16L18.607,33.685A3.05,3.05,0,0,1,16.458,34.553Zm15.176-5.986a12.557,12.557,0,0,1-3.2-.417l7.4-7.369,2.145-2.175,2.147-2.145a6.079,6.079,0,0,0,0-8.584,6.019,6.019,0,0,0-8.584,0l-2.173,2.145-9.544,9.544A12.1,12.1,0,0,1,22.926,7.878l4.292-4.32A12.179,12.179,0,0,1,44.442,20.782l-4.32,4.292A11.922,11.922,0,0,1,31.634,28.567Z" transform="translate(0)" fill="#bebebe"/></g><g transform="translate(872 127)" opacity="0.5"><path d="M12.17,48A12.179,12.179,0,0,1,3.558,27.218l4.32-4.292a11.976,11.976,0,0,1,8.534-3.505,12.691,12.691,0,0,1,3.155.4L7.878,31.538a6,6,0,0,0-1.8,4.278A6.085,6.085,0,0,0,16.462,40.15L28.151,28.433a12.017,12.017,0,0,1-3.077,11.689l-4.292,4.32A12.141,12.141,0,0,1,12.17,48Zm4.288-13.447a3.014,3.014,0,0,1-2.143-5.16L29.366,14.315a3.131,3.131,0,0,1,2.174-.868,3.014,3.014,0,0,1,2.146,5.16L18.607,33.685A3.05,3.05,0,0,1,16.458,34.553Zm15.176-5.986a12.557,12.557,0,0,1-3.2-.417l7.4-7.369,2.145-2.175,2.147-2.145a6.079,6.079,0,0,0,0-8.584,6.019,6.019,0,0,0-8.584,0l-2.173,2.145-9.544,9.544A12.1,12.1,0,0,1,22.926,7.878l4.292-4.32A12.179,12.179,0,0,1,44.442,20.782l-4.32,4.292A11.922,11.922,0,0,1,31.634,28.567Z" transform="translate(0)" fill="#bebebe"/></g><g transform="translate(1764.627 145.325)" opacity="0.83"><path d="M7.007,45.247A23.916,23.916,0,0,1,0,44.152c3.576-2.354,4.473-4.9,5.341-7.371.731-2.079,1.422-4.042,3.711-5.633a6.809,6.809,0,0,1,3.914-1.25,6.44,6.44,0,0,1,4.717,2.065,7.257,7.257,0,0,1,1.441,4.955,6.666,6.666,0,0,1-1.89,4.74A14.734,14.734,0,0,1,7.007,45.247ZM21.8,30.381h0a4.223,4.223,0,0,1-3.191-1.054c-2.635-2.8.488-10.644,3.054-13.506C26.868,10.1,41.163,1.19,43.157.211A3.6,3.6,0,0,1,44.386,0a3.027,3.027,0,0,1,2.191.882,3.9,3.9,0,0,1,.868,3.811c-.9,1.936-9.8,16.224-15.413,21.832C30.285,28.272,25.331,30.381,21.8,30.381Z" transform="translate(0 0)" fill="#bebebe"/></g><g transform="translate(1262.743 165.325)" opacity="0.72"><path d="M7.007,45.247A23.916,23.916,0,0,1,0,44.152c3.576-2.354,4.473-4.9,5.341-7.371.731-2.079,1.422-4.042,3.711-5.633a6.809,6.809,0,0,1,3.914-1.25,6.44,6.44,0,0,1,4.717,2.065,7.257,7.257,0,0,1,1.441,4.955,6.666,6.666,0,0,1-1.89,4.74A14.734,14.734,0,0,1,7.007,45.247ZM21.8,30.381h0a4.223,4.223,0,0,1-3.191-1.054c-2.635-2.8.488-10.644,3.054-13.506C26.868,10.1,41.163,1.19,43.157.211A3.6,3.6,0,0,1,44.386,0a3.027,3.027,0,0,1,2.191.882,3.9,3.9,0,0,1,.868,3.811c-.9,1.936-9.8,16.224-15.413,21.832C30.285,28.272,25.331,30.381,21.8,30.381Z" transform="translate(0 0)" fill="#bebebe"/></g><g transform="translate(1577.016 712.921)" opacity="0.22"><path d="M7.007,45.247A23.916,23.916,0,0,1,0,44.152c3.576-2.354,4.473-4.9,5.341-7.371.731-2.079,1.422-4.042,3.711-5.633a6.809,6.809,0,0,1,3.914-1.25,6.44,6.44,0,0,1,4.717,2.065,7.257,7.257,0,0,1,1.441,4.955,6.666,6.666,0,0,1-1.89,4.74A14.734,14.734,0,0,1,7.007,45.247ZM21.8,30.381h0a4.223,4.223,0,0,1-3.191-1.054c-2.635-2.8.488-10.644,3.054-13.506C26.868,10.1,41.163,1.19,43.157.211A3.6,3.6,0,0,1,44.386,0a3.027,3.027,0,0,1,2.191.882,3.9,3.9,0,0,1,.868,3.811c-.9,1.936-9.8,16.224-15.413,21.832C30.285,28.272,25.331,30.381,21.8,30.381Z" transform="translate(0 0)" fill="#bebebe"/></g><g transform="translate(1143 299)" opacity="0.5"><path d="M26.47,45H18.53V39.23a16.9,16.9,0,0,1-5.055-2.092L9.4,41.214,3.786,35.6l4.076-4.076A16.9,16.9,0,0,1,5.77,26.47H0V18.608H5.744a17.234,17.234,0,0,1,2.118-5.134L3.786,9.4,9.344,3.838,13.42,7.914A17.085,17.085,0,0,1,18.53,5.77V0h7.94V5.77a16.9,16.9,0,0,1,5.055,2.092L35.6,3.786,41.214,9.4l-4.076,4.079a17.235,17.235,0,0,1,2.118,5.134H45V26.47H39.23a16.9,16.9,0,0,1-2.144,5.11l4.076,4.076L35.6,41.214l-4.076-4.076A16.9,16.9,0,0,1,26.47,39.23V45ZM22.5,14.558a7.942,7.942,0,1,0,7.943,7.94A7.949,7.949,0,0,0,22.5,14.558Z" transform="translate(0)" fill="#bebebe"/></g><g transform="translate(1877 647)" opacity="0.5"><path d="M26.47,45H18.53V39.23a16.9,16.9,0,0,1-5.055-2.092L9.4,41.214,3.786,35.6l4.076-4.076A16.9,16.9,0,0,1,5.77,26.47H0V18.608H5.744a17.234,17.234,0,0,1,2.118-5.134L3.786,9.4,9.344,3.838,13.42,7.914A17.085,17.085,0,0,1,18.53,5.77V0h7.94V5.77a16.9,16.9,0,0,1,5.055,2.092L35.6,3.786,41.214,9.4l-4.076,4.079a17.235,17.235,0,0,1,2.118,5.134H45V26.47H39.23a16.9,16.9,0,0,1-2.144,5.11l4.076,4.076L35.6,41.214l-4.076-4.076A16.9,16.9,0,0,1,26.47,39.23V45ZM22.5,14.558a7.942,7.942,0,1,0,7.943,7.94A7.949,7.949,0,0,0,22.5,14.558Z" transform="translate(0)" fill="#bebebe"/></g><g transform="translate(1606 786)" opacity="0.07"><path d="M26.47,45H18.53V39.23a16.9,16.9,0,0,1-5.055-2.092L9.4,41.214,3.786,35.6l4.076-4.076A16.9,16.9,0,0,1,5.77,26.47H0V18.608H5.744a17.234,17.234,0,0,1,2.118-5.134L3.786,9.4,9.344,3.838,13.42,7.914A17.085,17.085,0,0,1,18.53,5.77V0h7.94V5.77a16.9,16.9,0,0,1,5.055,2.092L35.6,3.786,41.214,9.4l-4.076,4.079a17.235,17.235,0,0,1,2.118,5.134H45V26.47H39.23a16.9,16.9,0,0,1-2.144,5.11l4.076,4.076L35.6,41.214l-4.076-4.076A16.9,16.9,0,0,1,26.47,39.23V45ZM22.5,14.558a7.942,7.942,0,1,0,7.943,7.94A7.949,7.949,0,0,0,22.5,14.558Z" transform="translate(0)" fill="#bebebe"/></g><g transform="translate(1587 132)" opacity="0.72"><path d="M26.47,45H18.53V39.23a16.9,16.9,0,0,1-5.055-2.092L9.4,41.214,3.786,35.6l4.076-4.076A16.9,16.9,0,0,1,5.77,26.47H0V18.608H5.744a17.234,17.234,0,0,1,2.118-5.134L3.786,9.4,9.344,3.838,13.42,7.914A17.085,17.085,0,0,1,18.53,5.77V0h7.94V5.77a16.9,16.9,0,0,1,5.055,2.092L35.6,3.786,41.214,9.4l-4.076,4.079a17.235,17.235,0,0,1,2.118,5.134H45V26.47H39.23a16.9,16.9,0,0,1-2.144,5.11l4.076,4.076L35.6,41.214l-4.076-4.076A16.9,16.9,0,0,1,26.47,39.23V45ZM22.5,14.558a7.942,7.942,0,1,0,7.943,7.94A7.949,7.949,0,0,0,22.5,14.558Z" transform="translate(0)" fill="#bebebe"/></g><g transform="translate(1047 40)" opacity="0.65"><path d="M26.47,45H18.53V39.23a16.9,16.9,0,0,1-5.055-2.092L9.4,41.214,3.786,35.6l4.076-4.076A16.9,16.9,0,0,1,5.77,26.47H0V18.608H5.744a17.234,17.234,0,0,1,2.118-5.134L3.786,9.4,9.344,3.838,13.42,7.914A17.085,17.085,0,0,1,18.53,5.77V0h7.94V5.77a16.9,16.9,0,0,1,5.055,2.092L35.6,3.786,41.214,9.4l-4.076,4.079a17.235,17.235,0,0,1,2.118,5.134H45V26.47H39.23a16.9,16.9,0,0,1-2.144,5.11l4.076,4.076L35.6,41.214l-4.076-4.076A16.9,16.9,0,0,1,26.47,39.23V45ZM22.5,14.558a7.942,7.942,0,1,0,7.943,7.94A7.949,7.949,0,0,0,22.5,14.558Z" transform="translate(0)" fill="#bebebe"/></g><g transform="translate(1668.44 129.136)" opacity="0.83"><path d="M55.711,47.617H32.253V37.357l11.73-10.263L55.711,37.357v10.26Zm-14.659-8.8h0v5.864h5.864V38.822Zm-14.662,8.8H2.932V37.357l11.73-10.263L26.389,37.357v10.26Zm-14.662-8.8h0v5.864h5.866V38.822ZM31.459,35.1l0,0-2.136-2.14L27.183,35.1,14.662,24.162,2.14,35.1l0,0,0,0L0,32.958,14.662,20.114,29.321,32.958,43.983,20.114,58.643,32.958,56.5,35.1,43.983,24.162,31.462,35.1Zm-2.283-5.515,0,0L17.594,19.412V17.24L29.321,6.977,41.051,17.24v2.288L29.178,29.584ZM26.389,18.3h0v4.985h5.864V18.3H26.389ZM16.8,14.986l0,0-2.136-2.14L29.321,0,43.983,12.844l-2.138,2.138L29.321,4.046,16.8,14.984Z" transform="translate(0 0)" fill="#bebebe"/></g><g transform="translate(1133.224 222.465)" opacity="0.65"><path d="M55.711,47.617H32.253V37.357l11.73-10.263L55.711,37.357v10.26Zm-14.659-8.8h0v5.864h5.864V38.822Zm-14.662,8.8H2.932V37.357l11.73-10.263L26.389,37.357v10.26Zm-14.662-8.8h0v5.864h5.866V38.822ZM31.459,35.1l0,0-2.136-2.14L27.183,35.1,14.662,24.162,2.14,35.1l0,0,0,0L0,32.958,14.662,20.114,29.321,32.958,43.983,20.114,58.643,32.958,56.5,35.1,43.983,24.162,31.462,35.1Zm-2.283-5.515,0,0L17.594,19.412V17.24L29.321,6.977,41.051,17.24v2.288L29.178,29.584ZM26.389,18.3h0v4.985h5.864V18.3H26.389ZM16.8,14.986l0,0-2.136-2.14L29.321,0,43.983,12.844l-2.138,2.138L29.321,4.046,16.8,14.984Z" transform="translate(0 0)" fill="#bebebe"/></g><g transform="translate(1214.173 525.31)" opacity="0.16"><g transform="translate(0 0)"><path d="M45.759,39.111H26.492V30.684l9.635-8.43,9.633,8.43v8.427ZM33.718,31.887h0V36.7h4.816V31.887ZM21.675,39.111H2.408V30.684l9.635-8.43,9.633,8.43v8.427ZM9.633,31.887h0V36.7h4.818V31.887ZM25.84,28.83l0,0L24.083,27.07l-1.756,1.756L12.043,19.846,1.758,28.828h0l0,0L0,27.07,12.043,16.521,24.083,27.07,36.126,16.521,48.167,27.07l-1.756,1.756L36.126,19.846,25.841,28.828ZM23.964,24.3h0l-9.512-8.354V14.16l9.633-8.43,9.635,8.43V16.04L23.966,24.3Zm-2.289-9.273h0v4.094h4.816V15.027H21.675ZM13.8,12.309l0,0-1.755-1.758L24.083,0,36.126,10.549,34.37,12.306,24.083,3.323,13.8,12.307Z" transform="translate(0 0)" fill="#bebebe"/></g></g><g transform="translate(1365.596 547.214)" opacity="0.35"><g transform="translate(0 0)"><g transform="translate(0 0)"><path d="M8.09,34.165H2.023L0,30.118,16.08,14.564a10.094,10.094,0,1,1,16.182,2.711,10,10,0,0,1-7.119,2.942,10.265,10.265,0,0,1-4.189-.9l-3.783,6.7-6.048.626L8.091,34.164Zm19.1-28.926A2.7,2.7,0,1,0,29.876,7.93,2.693,2.693,0,0,0,27.185,5.239Z" transform="translate(0 0)" fill="#bebebe"/></g></g></g><g transform="translate(1733.2 514.834)" opacity="0.65"><g transform="translate(0 0)"><g transform="translate(0 0)"><path d="M8.09,34.165H2.023L0,30.118,16.08,14.564a10.094,10.094,0,1,1,16.182,2.711,10,10,0,0,1-7.119,2.942,10.265,10.265,0,0,1-4.189-.9l-3.783,6.7-6.048.626L8.091,34.164Zm19.1-28.926A2.7,2.7,0,1,0,29.876,7.93,2.693,2.693,0,0,0,27.185,5.239Z" transform="translate(0 0)" fill="#bebebe"/></g></g></g><g transform="translate(1845.576 819.583)" opacity="0.22"><g transform="translate(0 0)"><g transform="translate(0 0)"><path d="M8.09,34.165H2.023L0,30.118,16.08,14.564a10.094,10.094,0,1,1,16.182,2.711,10,10,0,0,1-7.119,2.942,10.265,10.265,0,0,1-4.189-.9l-3.783,6.7-6.048.626L8.091,34.164Zm19.1-28.926A2.7,2.7,0,1,0,29.876,7.93,2.693,2.693,0,0,0,27.185,5.239Z" transform="translate(0 0)" fill="#bebebe"/></g></g></g><g transform="translate(1597.967 204.371)" opacity="0.72"><path d="M10.933,46.169h-8.2L0,40.7,21.73,19.68A13.64,13.64,0,1,1,43.6,23.344a13.511,13.511,0,0,1-9.62,3.975,13.872,13.872,0,0,1-5.66-1.215l-5.112,9.048L15.034,36l-4.1,10.168ZM36.737,7.08a3.648,3.648,0,1,0,3.636,3.636A3.639,3.639,0,0,0,36.737,7.08Z" transform="translate(0 0)" fill="#bebebe"/></g><g transform="translate(701.813 131.993)" opacity="0.22"><path d="M10.933,46.169h-8.2L0,40.7,21.73,19.68A13.64,13.64,0,1,1,43.6,23.344a13.511,13.511,0,0,1-9.62,3.975,13.872,13.872,0,0,1-5.66-1.215l-5.112,9.048L15.034,36l-4.1,10.168ZM36.737,7.08a3.648,3.648,0,1,0,3.636,3.636A3.639,3.639,0,0,0,36.737,7.08Z" transform="translate(0 0)" fill="#bebebe"/></g><g transform="translate(1733.2 54.853)" opacity="0.89" clip-path="url(#bt)"><g transform="translate(0 0)"><g transform="translate(0 0)"><path d="M23.809,47.147A23.718,23.718,0,0,1,0,23.575a23.81,23.81,0,0,1,47.617,0A23.718,23.718,0,0,1,23.809,47.147ZM23.2,3.09A21.053,21.053,0,0,0,4.022,17.837c3.026,3.355,7.768,5.318,14.5,6-3.69,1.96-4.26,4.412-4.763,6.576a5.937,5.937,0,0,0,2.669,2.25c2.656,1.526,5.961,3.424,5.8,10.95,7.018-2.982,10.632-7.123,10.74-12.31.075-3.712-.569-6.463-9.6-8.066-5.525-1-9.315-3.084-9.892-5.439a3.021,3.021,0,0,1,1.427-3.126,1.634,1.634,0,0,1,1.026-.391,4.485,4.485,0,0,1,2.469,1.4c.129.108.259.217.392.326a6.042,6.042,0,0,0,3.777,1.72,4.2,4.2,0,0,0,.564-.039C19.282,13.959,20.855,6.907,23.2,3.09Zm17.777,9.432c-3.709,3.123-5.171,5.813-4.469,8.223a9.176,9.176,0,0,0,2.746,3.845A16.052,16.052,0,0,1,43.2,30.016c.031-.1.072-.227.121-.376.736-2.236,2.976-9.038-2.344-17.12Z" transform="translate(0 0)" fill="#bebebe"/><g transform="translate(0 0)" clip-path="url(#bu)"><g transform="translate(-12.403 -13.012)" clip-path="url(#bv)"><rect width="73.9" height="73.172" fill="#bebebe"/></g></g></g></g></g><g transform="translate(1312.265 592.926)" opacity="0.16" clip-path="url(#bt)"><g transform="translate(0 0)"><g transform="translate(0 0)"><path d="M23.809,47.147A23.718,23.718,0,0,1,0,23.575a23.81,23.81,0,0,1,47.617,0A23.718,23.718,0,0,1,23.809,47.147ZM23.2,3.09A21.053,21.053,0,0,0,4.022,17.837c3.026,3.355,7.768,5.318,14.5,6-3.69,1.96-4.26,4.412-4.763,6.576a5.937,5.937,0,0,0,2.669,2.25c2.656,1.526,5.961,3.424,5.8,10.95,7.018-2.982,10.632-7.123,10.74-12.31.075-3.712-.569-6.463-9.6-8.066-5.525-1-9.315-3.084-9.892-5.439a3.021,3.021,0,0,1,1.427-3.126,1.634,1.634,0,0,1,1.026-.391,4.485,4.485,0,0,1,2.469,1.4c.129.108.259.217.392.326a6.042,6.042,0,0,0,3.777,1.72,4.2,4.2,0,0,0,.564-.039C19.282,13.959,20.855,6.907,23.2,3.09Zm17.777,9.432c-3.709,3.123-5.171,5.813-4.469,8.223a9.176,9.176,0,0,0,2.746,3.845A16.052,16.052,0,0,1,43.2,30.016c.031-.1.072-.227.121-.376.736-2.236,2.976-9.038-2.344-17.12Z" transform="translate(0 0)" fill="#bebebe"/><g transform="translate(0 0)" clip-path="url(#bu)"><g transform="translate(-12.403 -13.012)" clip-path="url(#bv)"><rect width="73.9" height="73.172" fill="#bebebe"/></g></g></g></g></g><g transform="translate(1257.981 106.279)" opacity="0.72" clip-path="url(#bt)"><g transform="translate(0 0)"><g transform="translate(0 0)"><path d="M23.809,47.147A23.718,23.718,0,0,1,0,23.575a23.81,23.81,0,0,1,47.617,0A23.718,23.718,0,0,1,23.809,47.147ZM23.2,3.09A21.053,21.053,0,0,0,4.022,17.837c3.026,3.355,7.768,5.318,14.5,6-3.69,1.96-4.26,4.412-4.763,6.576a5.937,5.937,0,0,0,2.669,2.25c2.656,1.526,5.961,3.424,5.8,10.95,7.018-2.982,10.632-7.123,10.74-12.31.075-3.712-.569-6.463-9.6-8.066-5.525-1-9.315-3.084-9.892-5.439a3.021,3.021,0,0,1,1.427-3.126,1.634,1.634,0,0,1,1.026-.391,4.485,4.485,0,0,1,2.469,1.4c.129.108.259.217.392.326a6.042,6.042,0,0,0,3.777,1.72,4.2,4.2,0,0,0,.564-.039C19.282,13.959,20.855,6.907,23.2,3.09Zm17.777,9.432c-3.709,3.123-5.171,5.813-4.469,8.223a9.176,9.176,0,0,0,2.746,3.845A16.052,16.052,0,0,1,43.2,30.016c.031-.1.072-.227.121-.376.736-2.236,2.976-9.038-2.344-17.12Z" transform="translate(0 0)" fill="#bebebe"/><g transform="translate(0 0)" clip-path="url(#bu)"><g transform="translate(-12.403 -13.012)" clip-path="url(#bv)"><rect width="73.9" height="73.172" fill="#bebebe"/></g></g></g></g></g><g transform="translate(903.71 309.128)" opacity="0.16" clip-path="url(#bt)"><g transform="translate(0 0)"><g transform="translate(0 0)"><path d="M23.809,47.147A23.718,23.718,0,0,1,0,23.575a23.81,23.81,0,0,1,47.617,0A23.718,23.718,0,0,1,23.809,47.147ZM23.2,3.09A21.053,21.053,0,0,0,4.022,17.837c3.026,3.355,7.768,5.318,14.5,6-3.69,1.96-4.26,4.412-4.763,6.576a5.937,5.937,0,0,0,2.669,2.25c2.656,1.526,5.961,3.424,5.8,10.95,7.018-2.982,10.632-7.123,10.74-12.31.075-3.712-.569-6.463-9.6-8.066-5.525-1-9.315-3.084-9.892-5.439a3.021,3.021,0,0,1,1.427-3.126,1.634,1.634,0,0,1,1.026-.391,4.485,4.485,0,0,1,2.469,1.4c.129.108.259.217.392.326a6.042,6.042,0,0,0,3.777,1.72,4.2,4.2,0,0,0,.564-.039C19.282,13.959,20.855,6.907,23.2,3.09Zm17.777,9.432c-3.709,3.123-5.171,5.813-4.469,8.223a9.176,9.176,0,0,0,2.746,3.845A16.052,16.052,0,0,1,43.2,30.016c.031-.1.072-.227.121-.376.736-2.236,2.976-9.038-2.344-17.12Z" transform="translate(0 0)" fill="#bebebe"/><g transform="translate(0 0)" clip-path="url(#bu)"><g transform="translate(-12.403 -13.012)" clip-path="url(#bv)"><rect width="73.9" height="73.172" fill="#bebebe"/></g></g></g></g></g><g transform="translate(1365.596 299.605)" opacity="0.65" clip-path="url(#bt)"><g transform="translate(0 0)"><g transform="translate(0 0)"><path d="M23.809,47.147A23.718,23.718,0,0,1,0,23.575a23.81,23.81,0,0,1,47.617,0A23.718,23.718,0,0,1,23.809,47.147ZM23.2,3.09A21.053,21.053,0,0,0,4.022,17.837c3.026,3.355,7.768,5.318,14.5,6-3.69,1.96-4.26,4.412-4.763,6.576a5.937,5.937,0,0,0,2.669,2.25c2.656,1.526,5.961,3.424,5.8,10.95,7.018-2.982,10.632-7.123,10.74-12.31.075-3.712-.569-6.463-9.6-8.066-5.525-1-9.315-3.084-9.892-5.439a3.021,3.021,0,0,1,1.427-3.126,1.634,1.634,0,0,1,1.026-.391,4.485,4.485,0,0,1,2.469,1.4c.129.108.259.217.392.326a6.042,6.042,0,0,0,3.777,1.72,4.2,4.2,0,0,0,.564-.039C19.282,13.959,20.855,6.907,23.2,3.09Zm17.777,9.432c-3.709,3.123-5.171,5.813-4.469,8.223a9.176,9.176,0,0,0,2.746,3.845A16.052,16.052,0,0,1,43.2,30.016c.031-.1.072-.227.121-.376.736-2.236,2.976-9.038-2.344-17.12Z" transform="translate(0 0)" fill="#bebebe"/><g transform="translate(0 0)" clip-path="url(#bu)"><g transform="translate(-12.403 -13.012)" clip-path="url(#bv)"><rect width="73.9" height="73.172" fill="#bebebe"/></g></g></g></g></g><g transform="translate(1742.723 424.362)" opacity="0.65" clip-path="url(#bt)"><g transform="translate(0 0)"><g transform="translate(0 0)"><path d="M23.809,47.147A23.718,23.718,0,0,1,0,23.575a23.81,23.81,0,0,1,47.617,0A23.718,23.718,0,0,1,23.809,47.147ZM23.2,3.09A21.053,21.053,0,0,0,4.022,17.837c3.026,3.355,7.768,5.318,14.5,6-3.69,1.96-4.26,4.412-4.763,6.576a5.937,5.937,0,0,0,2.669,2.25c2.656,1.526,5.961,3.424,5.8,10.95,7.018-2.982,10.632-7.123,10.74-12.31.075-3.712-.569-6.463-9.6-8.066-5.525-1-9.315-3.084-9.892-5.439a3.021,3.021,0,0,1,1.427-3.126,1.634,1.634,0,0,1,1.026-.391,4.485,4.485,0,0,1,2.469,1.4c.129.108.259.217.392.326a6.042,6.042,0,0,0,3.777,1.72,4.2,4.2,0,0,0,.564-.039C19.282,13.959,20.855,6.907,23.2,3.09Zm17.777,9.432c-3.709,3.123-5.171,5.813-4.469,8.223a9.176,9.176,0,0,0,2.746,3.845A16.052,16.052,0,0,1,43.2,30.016c.031-.1.072-.227.121-.376.736-2.236,2.976-9.038-2.344-17.12Z" transform="translate(0 0)" fill="#bebebe"/><g transform="translate(0 0)" clip-path="url(#bu)"><g transform="translate(-12.403 -13.012)" clip-path="url(#bv)"><rect width="73.9" height="73.172" fill="#bebebe"/></g></g></g></g></g><g transform="translate(1763.723 830.362)" opacity="0.16" clip-path="url(#bt)"><g transform="translate(0 0)"><g transform="translate(0 0)"><path d="M23.809,47.147A23.718,23.718,0,0,1,0,23.575a23.81,23.81,0,0,1,47.617,0A23.718,23.718,0,0,1,23.809,47.147ZM23.2,3.09A21.053,21.053,0,0,0,4.022,17.837c3.026,3.355,7.768,5.318,14.5,6-3.69,1.96-4.26,4.412-4.763,6.576a5.937,5.937,0,0,0,2.669,2.25c2.656,1.526,5.961,3.424,5.8,10.95,7.018-2.982,10.632-7.123,10.74-12.31.075-3.712-.569-6.463-9.6-8.066-5.525-1-9.315-3.084-9.892-5.439a3.021,3.021,0,0,1,1.427-3.126,1.634,1.634,0,0,1,1.026-.391,4.485,4.485,0,0,1,2.469,1.4c.129.108.259.217.392.326a6.042,6.042,0,0,0,3.777,1.72,4.2,4.2,0,0,0,.564-.039C19.282,13.959,20.855,6.907,23.2,3.09Zm17.777,9.432c-3.709,3.123-5.171,5.813-4.469,8.223a9.176,9.176,0,0,0,2.746,3.845A16.052,16.052,0,0,1,43.2,30.016c.031-.1.072-.227.121-.376.736-2.236,2.976-9.038-2.344-17.12Z" transform="translate(0 0)" fill="#bebebe"/><g transform="translate(0 0)" clip-path="url(#bu)"><g transform="translate(-12.403 -13.012)" clip-path="url(#bv)"><rect width="73.9" height="73.172" fill="#bebebe"/></g></g></g></g></g><g transform="translate(1170.366 479.597)" opacity="0.22" clip-path="url(#co)"><path d="M28.2,41.026H5.128a2.567,2.567,0,0,1-2.564-2.564V12.821h28.2V38.462A2.567,2.567,0,0,1,28.2,41.026ZM23.077,17.949V35.9h2.564V17.949Zm-7.691,0V35.9h2.564V17.949Zm-7.694,0V35.9h2.564V17.949Zm25.641-7.694H0V7.691A2.567,2.567,0,0,1,2.564,5.128h7.691a6.571,6.571,0,0,1,12.821,0h7.691a2.567,2.567,0,0,1,2.564,2.564v2.564ZM16.666,2.564a4.145,4.145,0,0,0-3.845,2.564h7.691A4.147,4.147,0,0,0,16.666,2.564Z" transform="translate(0 0)" fill="#bebebe"/><g transform="translate(0 0)" clip-path="url(#cp)"><g transform="translate(-15.093 -8.683)" clip-path="url(#cq)"><rect width="63.518" height="57.62" fill="#bebebe"/></g></g></g><g transform="translate(1592.253 469.122)" opacity="0.65" clip-path="url(#co)"><path d="M28.2,41.026H5.128a2.567,2.567,0,0,1-2.564-2.564V12.821h28.2V38.462A2.567,2.567,0,0,1,28.2,41.026ZM23.077,17.949V35.9h2.564V17.949Zm-7.691,0V35.9h2.564V17.949Zm-7.694,0V35.9h2.564V17.949Zm25.641-7.694H0V7.691A2.567,2.567,0,0,1,2.564,5.128h7.691a6.571,6.571,0,0,1,12.821,0h7.691a2.567,2.567,0,0,1,2.564,2.564v2.564ZM16.666,2.564a4.145,4.145,0,0,0-3.845,2.564h7.691A4.147,4.147,0,0,0,16.666,2.564Z" transform="translate(0 0)" fill="#bebebe"/><g transform="translate(0 0)" clip-path="url(#cp)"><g transform="translate(-15.093 -8.683)" clip-path="url(#cq)"><rect width="63.518" height="57.62" fill="#bebebe"/></g></g></g><g transform="translate(1516.066 170.086)" opacity="0.72" clip-path="url(#co)"><path d="M28.2,41.026H5.128a2.567,2.567,0,0,1-2.564-2.564V12.821h28.2V38.462A2.567,2.567,0,0,1,28.2,41.026ZM23.077,17.949V35.9h2.564V17.949Zm-7.691,0V35.9h2.564V17.949Zm-7.694,0V35.9h2.564V17.949Zm25.641-7.694H0V7.691A2.567,2.567,0,0,1,2.564,5.128h7.691a6.571,6.571,0,0,1,12.821,0h7.691a2.567,2.567,0,0,1,2.564,2.564v2.564ZM16.666,2.564a4.145,4.145,0,0,0-3.845,2.564h7.691A4.147,4.147,0,0,0,16.666,2.564Z" transform="translate(0 0)" fill="#bebebe"/><g transform="translate(0 0)" clip-path="url(#cp)"><g transform="translate(-15.093 -8.683)" clip-path="url(#cq)"><rect width="63.518" height="57.62" fill="#bebebe"/></g></g></g><g transform="translate(1655.108 715.778)" opacity="0.22" clip-path="url(#co)"><path d="M28.2,41.026H5.128a2.567,2.567,0,0,1-2.564-2.564V12.821h28.2V38.462A2.567,2.567,0,0,1,28.2,41.026ZM23.077,17.949V35.9h2.564V17.949Zm-7.691,0V35.9h2.564V17.949Zm-7.694,0V35.9h2.564V17.949Zm25.641-7.694H0V7.691A2.567,2.567,0,0,1,2.564,5.128h7.691a6.571,6.571,0,0,1,12.821,0h7.691a2.567,2.567,0,0,1,2.564,2.564v2.564ZM16.666,2.564a4.145,4.145,0,0,0-3.845,2.564h7.691A4.147,4.147,0,0,0,16.666,2.564Z" transform="translate(0 0)" fill="#bebebe"/><g transform="translate(0 0)" clip-path="url(#cp)"><g transform="translate(-15.093 -8.683)" clip-path="url(#cq)"><rect width="63.518" height="57.62" fill="#bebebe"/></g></g></g><g transform="translate(967.517 236.75)" opacity="0.5" clip-path="url(#da)"><path d="M0,47.688v-.005L3.982,28.536C4.209,28.308,30.06,2.353,31.407.975A3.755,3.755,0,0,1,34.065,0a4.4,4.4,0,0,1,3.106,1.216l9.3,9.335a4.175,4.175,0,0,1,.105,5.628L19.084,43.706.005,47.687ZM33.087,16.112,13.9,35.332l3.707,3.707L36.76,19.818ZM27.8,10.792,8.616,30.046l3.809,3.809,19.017-19.39Z" transform="translate(0 0)" fill="#bebebe"/><g transform="translate(0 0)" clip-path="url(#db)"><g transform="translate(-18.704 -15.238)" clip-path="url(#dc)"><rect width="85.027" height="77.132" fill="#bebebe"/></g></g></g><g transform="translate(1365.596 646.257)" opacity="0.16" clip-path="url(#da)"><path d="M0,47.688v-.005L3.982,28.536C4.209,28.308,30.06,2.353,31.407.975A3.755,3.755,0,0,1,34.065,0a4.4,4.4,0,0,1,3.106,1.216l9.3,9.335a4.175,4.175,0,0,1,.105,5.628L19.084,43.706.005,47.687ZM33.087,16.112,13.9,35.332l3.707,3.707L36.76,19.818ZM27.8,10.792,8.616,30.046l3.809,3.809,19.017-19.39Z" transform="translate(0 0)" fill="#bebebe"/><g transform="translate(0 0)" clip-path="url(#db)"><g transform="translate(-18.704 -15.238)" clip-path="url(#dc)"><rect width="85.027" height="77.132" fill="#bebebe"/></g></g></g><g transform="translate(1869.385 720.54)" opacity="0.35" clip-path="url(#dg)"><path d="M0,37.2v0L3.106,22.258C3.283,22.08,23.447,1.835,24.5.76A2.929,2.929,0,0,1,26.571,0a3.429,3.429,0,0,1,2.423.948L36.249,8.23a3.256,3.256,0,0,1,.082,4.39L14.886,34.091,0,37.2Zm25.808-24.63L10.843,27.559l2.891,2.891L28.673,15.458ZM21.685,8.418,6.72,23.436l2.971,2.971L24.524,11.283Z" transform="translate(0 0)" fill="#bebebe"/><g transform="translate(0 0)" clip-path="url(#dh)"><g transform="translate(-14.589 -11.885)" clip-path="url(#di)"><rect width="66.321" height="60.163" fill="#bebebe"/></g></g></g><g transform="translate(1347.501 149.135)" opacity="0.72" clip-path="url(#da)"><path d="M0,47.688v-.005L3.982,28.536C4.209,28.308,30.06,2.353,31.407.975A3.755,3.755,0,0,1,34.065,0a4.4,4.4,0,0,1,3.106,1.216l9.3,9.335a4.175,4.175,0,0,1,.105,5.628L19.084,43.706.005,47.687ZM33.087,16.112,13.9,35.332l3.707,3.707L36.76,19.818ZM27.8,10.792,8.616,30.046l3.809,3.809,19.017-19.39Z" transform="translate(0 0)" fill="#bebebe"/><g transform="translate(0 0)" clip-path="url(#db)"><g transform="translate(-18.704 -15.238)" clip-path="url(#dc)"><rect width="85.027" height="77.132" fill="#bebebe"/></g></g></g><g transform="translate(1621.776 386.268)" opacity="0.65" clip-path="url(#da)"><path d="M0,47.688v-.005L3.982,28.536C4.209,28.308,30.06,2.353,31.407.975A3.755,3.755,0,0,1,34.065,0a4.4,4.4,0,0,1,3.106,1.216l9.3,9.335a4.175,4.175,0,0,1,.105,5.628L19.084,43.706.005,47.687ZM33.087,16.112,13.9,35.332l3.707,3.707L36.76,19.818ZM27.8,10.792,8.616,30.046l3.809,3.809,19.017-19.39Z" transform="translate(0 0)" fill="#bebebe"/><g transform="translate(0 0)" clip-path="url(#db)"><g transform="translate(-18.704 -15.238)" clip-path="url(#dc)"><rect width="85.027" height="77.132" fill="#bebebe"/></g></g></g><g transform="translate(1343.692 469.122)" opacity="0.35" clip-path="url(#dp)"><path d="M47.617,52.079H0V7.441H8.927V4.465a4.361,4.361,0,0,1,1.31-3.155,4.455,4.455,0,0,1,6.31,0,4.361,4.361,0,0,1,1.31,3.155V7.441h11.9V4.465A4.361,4.361,0,0,1,31.07,1.31a4.455,4.455,0,0,1,6.31,0,4.359,4.359,0,0,1,1.307,3.155V7.441h8.93V52.079ZM2.976,19.344V49.1H44.641V19.344ZM34.225,2.976a1.468,1.468,0,0,0-1.071.447,1.439,1.439,0,0,0-.418,1.042V11.9a1.488,1.488,0,1,0,2.976,0V4.465A1.438,1.438,0,0,0,35.3,3.423,1.468,1.468,0,0,0,34.225,2.976Zm-20.833,0a1.344,1.344,0,0,0-1.042.447A1.343,1.343,0,0,0,11.9,4.465V11.9a1.468,1.468,0,0,0,.447,1.071,1.508,1.508,0,0,0,2.084,0,1.468,1.468,0,0,0,.447-1.071V4.465a1.344,1.344,0,0,0-.447-1.042A1.343,1.343,0,0,0,13.392,2.976Zm25.3,43.152H32.736V40.176h5.951v5.951Zm-11.9,0H20.833V40.176h5.951v5.951Zm-11.9,0H8.927V40.176h5.954v5.951ZM38.687,37.2H32.736V31.249h5.951V37.2Zm-11.9,0H20.833V31.249h5.951V37.2Zm-11.9,0H8.927V31.249h5.954V37.2Zm23.806-8.927H32.736V22.319h5.951v5.954Zm-11.9,0H20.833V22.319h5.951v5.954Zm-11.9,0H8.927V22.319h5.954v5.954Z" transform="translate(0 0)" fill="#bebebe"/><g transform="translate(0 0)" clip-path="url(#dq)"><g transform="translate(-9.07 -7.582)" clip-path="url(#dr)"><rect width="66.409" height="67.482" fill="#bebebe"/></g></g></g><g transform="translate(1798.911 349.127)" opacity="0.72" clip-path="url(#dp)"><path d="M47.617,52.079H0V7.441H8.927V4.465a4.361,4.361,0,0,1,1.31-3.155,4.455,4.455,0,0,1,6.31,0,4.361,4.361,0,0,1,1.31,3.155V7.441h11.9V4.465A4.361,4.361,0,0,1,31.07,1.31a4.455,4.455,0,0,1,6.31,0,4.359,4.359,0,0,1,1.307,3.155V7.441h8.93V52.079ZM2.976,19.344V49.1H44.641V19.344ZM34.225,2.976a1.468,1.468,0,0,0-1.071.447,1.439,1.439,0,0,0-.418,1.042V11.9a1.488,1.488,0,1,0,2.976,0V4.465A1.438,1.438,0,0,0,35.3,3.423,1.468,1.468,0,0,0,34.225,2.976Zm-20.833,0a1.344,1.344,0,0,0-1.042.447A1.343,1.343,0,0,0,11.9,4.465V11.9a1.468,1.468,0,0,0,.447,1.071,1.508,1.508,0,0,0,2.084,0,1.468,1.468,0,0,0,.447-1.071V4.465a1.344,1.344,0,0,0-.447-1.042A1.343,1.343,0,0,0,13.392,2.976Zm25.3,43.152H32.736V40.176h5.951v5.951Zm-11.9,0H20.833V40.176h5.951v5.951Zm-11.9,0H8.927V40.176h5.954v5.951ZM38.687,37.2H32.736V31.249h5.951V37.2Zm-11.9,0H20.833V31.249h5.951V37.2Zm-11.9,0H8.927V31.249h5.954V37.2Zm23.806-8.927H32.736V22.319h5.951v5.954Zm-11.9,0H20.833V22.319h5.951v5.954Zm-11.9,0H8.927V22.319h5.954v5.954Z" transform="translate(0 0)" fill="#bebebe"/><g transform="translate(0 0)" clip-path="url(#dq)"><g transform="translate(-9.07 -7.582)" clip-path="url(#dr)"><rect width="66.409" height="67.482" fill="#bebebe"/></g></g></g><g transform="translate(848.474 254.845)" opacity="0.22" clip-path="url(#dp)"><path d="M47.617,52.079H0V7.441H8.927V4.465a4.361,4.361,0,0,1,1.31-3.155,4.455,4.455,0,0,1,6.31,0,4.361,4.361,0,0,1,1.31,3.155V7.441h11.9V4.465A4.361,4.361,0,0,1,31.07,1.31a4.455,4.455,0,0,1,6.31,0,4.359,4.359,0,0,1,1.307,3.155V7.441h8.93V52.079ZM2.976,19.344V49.1H44.641V19.344ZM34.225,2.976a1.468,1.468,0,0,0-1.071.447,1.439,1.439,0,0,0-.418,1.042V11.9a1.488,1.488,0,1,0,2.976,0V4.465A1.438,1.438,0,0,0,35.3,3.423,1.468,1.468,0,0,0,34.225,2.976Zm-20.833,0a1.344,1.344,0,0,0-1.042.447A1.343,1.343,0,0,0,11.9,4.465V11.9a1.468,1.468,0,0,0,.447,1.071,1.508,1.508,0,0,0,2.084,0,1.468,1.468,0,0,0,.447-1.071V4.465a1.344,1.344,0,0,0-.447-1.042A1.343,1.343,0,0,0,13.392,2.976Zm25.3,43.152H32.736V40.176h5.951v5.951Zm-11.9,0H20.833V40.176h5.951v5.951Zm-11.9,0H8.927V40.176h5.954v5.951ZM38.687,37.2H32.736V31.249h5.951V37.2Zm-11.9,0H20.833V31.249h5.951V37.2Zm-11.9,0H8.927V31.249h5.954V37.2Zm23.806-8.927H32.736V22.319h5.951v5.954Zm-11.9,0H20.833V22.319h5.951v5.954Zm-11.9,0H8.927V22.319h5.954v5.954Z" transform="translate(0 0)" fill="#bebebe"/><g transform="translate(0 0)" clip-path="url(#dq)"><g transform="translate(-9.07 -7.582)" clip-path="url(#dr)"><rect width="66.409" height="67.482" fill="#bebebe"/></g></g></g><g transform="translate(1335.121 66.281)" opacity="0.72" clip-path="url(#dp)"><path d="M47.617,52.079H0V7.441H8.927V4.465a4.361,4.361,0,0,1,1.31-3.155,4.455,4.455,0,0,1,6.31,0,4.361,4.361,0,0,1,1.31,3.155V7.441h11.9V4.465A4.361,4.361,0,0,1,31.07,1.31a4.455,4.455,0,0,1,6.31,0,4.359,4.359,0,0,1,1.307,3.155V7.441h8.93V52.079ZM2.976,19.344V49.1H44.641V19.344ZM34.225,2.976a1.468,1.468,0,0,0-1.071.447,1.439,1.439,0,0,0-.418,1.042V11.9a1.488,1.488,0,1,0,2.976,0V4.465A1.438,1.438,0,0,0,35.3,3.423,1.468,1.468,0,0,0,34.225,2.976Zm-20.833,0a1.344,1.344,0,0,0-1.042.447A1.343,1.343,0,0,0,11.9,4.465V11.9a1.468,1.468,0,0,0,.447,1.071,1.508,1.508,0,0,0,2.084,0,1.468,1.468,0,0,0,.447-1.071V4.465a1.344,1.344,0,0,0-.447-1.042A1.343,1.343,0,0,0,13.392,2.976Zm25.3,43.152H32.736V40.176h5.951v5.951Zm-11.9,0H20.833V40.176h5.951v5.951Zm-11.9,0H8.927V40.176h5.954v5.951ZM38.687,37.2H32.736V31.249h5.951V37.2Zm-11.9,0H20.833V31.249h5.951V37.2Zm-11.9,0H8.927V31.249h5.954V37.2Zm23.806-8.927H32.736V22.319h5.951v5.954Zm-11.9,0H20.833V22.319h5.951v5.954Zm-11.9,0H8.927V22.319h5.954v5.954Z" transform="translate(0 0)" fill="#bebebe"/><g transform="translate(0 0)" clip-path="url(#dq)"><g transform="translate(-9.07 -7.582)" clip-path="url(#dr)"><rect width="66.409" height="67.482" fill="#bebebe"/></g></g></g><g transform="translate(1258.933 462.455)" opacity="0.35" clip-path="url(#eb)"><path d="M27.063,39.365H2.46A2.463,2.463,0,0,1,0,36.9V19.682a2.463,2.463,0,0,1,2.46-2.46H19.682V9.84a4.921,4.921,0,0,0-9.842,0H4.92a9.841,9.841,0,0,1,19.682,0v7.382h2.46a2.463,2.463,0,0,1,2.46,2.46V36.9A2.463,2.463,0,0,1,27.063,39.365Zm-12.3-17.222a3.7,3.7,0,0,0-3.691,3.691,3.644,3.644,0,0,0,2.117,3.321l-.886,5.29h4.92l-.886-5.29a3.644,3.644,0,0,0,2.115-3.321A3.694,3.694,0,0,0,14.762,22.142Z" transform="translate(0 0)" fill="#bebebe"/><g transform="translate(0 0)" clip-path="url(#ec)"><g transform="translate(-12.419 -7.498)" clip-path="url(#ed)"><rect width="54.9" height="55.787" fill="#bebebe"/></g></g></g><g transform="translate(1416.07 53.901)" opacity="0.72" clip-path="url(#ee)"><path d="M7.516,39.64a2.565,2.565,0,0,1-1.854-.773l-.45-.45a2.643,2.643,0,0,1,0-3.731l4.207-4.231A25.6,25.6,0,0,1,0,20.058,25.757,25.757,0,0,1,9.628,9.5a26.246,26.246,0,0,1,14.18-4A26.154,26.154,0,0,1,32.8,7.1L39.1.773a2.669,2.669,0,0,1,3.757,0l.424.45a2.643,2.643,0,0,1,0,3.731L9.39,38.867A2.632,2.632,0,0,1,7.516,39.64ZM16,11.2A22.539,22.539,0,0,0,8.7,14.53a17.023,17.023,0,0,0-5,5.528,21.9,21.9,0,0,0,8.066,8.069l3.388-3.386A10.152,10.152,0,0,1,13.121,18.5,10.364,10.364,0,0,1,16,11.2Zm10.29-.876v0a3.34,3.34,0,0,0-2.2,1.059,3.332,3.332,0,0,0-.079,4.469l4.762-4.736a3,3,0,0,0-1.19-.686l-.158-.016c-.285-.029-.675-.069-1.139-.091ZM23.809,34.607a26.232,26.232,0,0,1-4.84-.476L21.8,31.3c.164.013.327.028.492.043.5.045,1,.091,1.518.091a23.063,23.063,0,0,0,11.9-3.2,22,22,0,0,0,8.2-8.173,17.025,17.025,0,0,0-5-5.528.863.863,0,0,1-.116-.052.856.856,0,0,0-.122-.055l2.54-2.538a25.158,25.158,0,0,1,6.4,8.174,25.757,25.757,0,0,1-9.628,10.554A26.245,26.245,0,0,1,23.809,34.607Zm.1-5.424,0,0L34.5,18.6a10.313,10.313,0,0,1-3.121,7.433,10.359,10.359,0,0,1-7.455,3.147Z" transform="translate(0 0)" fill="#bebebe"/><g transform="translate(0 0)" clip-path="url(#ef)"><g transform="translate(-5.417 -8.083)" clip-path="url(#eg)"><rect width="59.031" height="59.984" fill="#bebebe"/></g></g></g><g transform="translate(1883.67 191.038)" opacity="0.83" clip-path="url(#ee)"><path d="M7.516,39.64a2.565,2.565,0,0,1-1.854-.773l-.45-.45a2.643,2.643,0,0,1,0-3.731l4.207-4.231A25.6,25.6,0,0,1,0,20.058,25.757,25.757,0,0,1,9.628,9.5a26.246,26.246,0,0,1,14.18-4A26.154,26.154,0,0,1,32.8,7.1L39.1.773a2.669,2.669,0,0,1,3.757,0l.424.45a2.643,2.643,0,0,1,0,3.731L9.39,38.867A2.632,2.632,0,0,1,7.516,39.64ZM16,11.2A22.539,22.539,0,0,0,8.7,14.53a17.023,17.023,0,0,0-5,5.528,21.9,21.9,0,0,0,8.066,8.069l3.388-3.386A10.152,10.152,0,0,1,13.121,18.5,10.364,10.364,0,0,1,16,11.2Zm10.29-.876v0a3.34,3.34,0,0,0-2.2,1.059,3.332,3.332,0,0,0-.079,4.469l4.762-4.736a3,3,0,0,0-1.19-.686l-.158-.016c-.285-.029-.675-.069-1.139-.091ZM23.809,34.607a26.232,26.232,0,0,1-4.84-.476L21.8,31.3c.164.013.327.028.492.043.5.045,1,.091,1.518.091a23.063,23.063,0,0,0,11.9-3.2,22,22,0,0,0,8.2-8.173,17.025,17.025,0,0,0-5-5.528.863.863,0,0,1-.116-.052.856.856,0,0,0-.122-.055l2.54-2.538a25.158,25.158,0,0,1,6.4,8.174,25.757,25.757,0,0,1-9.628,10.554A26.245,26.245,0,0,1,23.809,34.607Zm.1-5.424,0,0L34.5,18.6a10.313,10.313,0,0,1-3.121,7.433,10.359,10.359,0,0,1-7.455,3.147Z" transform="translate(0 0)" fill="#bebebe"/><g transform="translate(0 0)" clip-path="url(#ef)"><g transform="translate(-5.417 -8.083)" clip-path="url(#eg)"><rect width="59.031" height="59.984" fill="#bebebe"/></g></g></g><g transform="translate(667.529 55.805)" opacity="0.22" clip-path="url(#ee)"><path d="M7.516,39.64a2.565,2.565,0,0,1-1.854-.773l-.45-.45a2.643,2.643,0,0,1,0-3.731l4.207-4.231A25.6,25.6,0,0,1,0,20.058,25.757,25.757,0,0,1,9.628,9.5a26.246,26.246,0,0,1,14.18-4A26.154,26.154,0,0,1,32.8,7.1L39.1.773a2.669,2.669,0,0,1,3.757,0l.424.45a2.643,2.643,0,0,1,0,3.731L9.39,38.867A2.632,2.632,0,0,1,7.516,39.64ZM16,11.2A22.539,22.539,0,0,0,8.7,14.53a17.023,17.023,0,0,0-5,5.528,21.9,21.9,0,0,0,8.066,8.069l3.388-3.386A10.152,10.152,0,0,1,13.121,18.5,10.364,10.364,0,0,1,16,11.2Zm10.29-.876v0a3.34,3.34,0,0,0-2.2,1.059,3.332,3.332,0,0,0-.079,4.469l4.762-4.736a3,3,0,0,0-1.19-.686l-.158-.016c-.285-.029-.675-.069-1.139-.091ZM23.809,34.607a26.232,26.232,0,0,1-4.84-.476L21.8,31.3c.164.013.327.028.492.043.5.045,1,.091,1.518.091a23.063,23.063,0,0,0,11.9-3.2,22,22,0,0,0,8.2-8.173,17.025,17.025,0,0,0-5-5.528.863.863,0,0,1-.116-.052.856.856,0,0,0-.122-.055l2.54-2.538a25.158,25.158,0,0,1,6.4,8.174,25.757,25.757,0,0,1-9.628,10.554A26.245,26.245,0,0,1,23.809,34.607Zm.1-5.424,0,0L34.5,18.6a10.313,10.313,0,0,1-3.121,7.433,10.359,10.359,0,0,1-7.455,3.147Z" transform="translate(0 0)" fill="#bebebe"/><g transform="translate(0 0)" clip-path="url(#ef)"><g transform="translate(-5.417 -8.083)" clip-path="url(#eg)"><rect width="59.031" height="59.984" fill="#bebebe"/></g></g></g><g transform="translate(988.468 155.801)" opacity="0.65" clip-path="url(#ee)"><path d="M7.516,39.64a2.565,2.565,0,0,1-1.854-.773l-.45-.45a2.643,2.643,0,0,1,0-3.731l4.207-4.231A25.6,25.6,0,0,1,0,20.058,25.757,25.757,0,0,1,9.628,9.5a26.246,26.246,0,0,1,14.18-4A26.154,26.154,0,0,1,32.8,7.1L39.1.773a2.669,2.669,0,0,1,3.757,0l.424.45a2.643,2.643,0,0,1,0,3.731L9.39,38.867A2.632,2.632,0,0,1,7.516,39.64ZM16,11.2A22.539,22.539,0,0,0,8.7,14.53a17.023,17.023,0,0,0-5,5.528,21.9,21.9,0,0,0,8.066,8.069l3.388-3.386A10.152,10.152,0,0,1,13.121,18.5,10.364,10.364,0,0,1,16,11.2Zm10.29-.876v0a3.34,3.34,0,0,0-2.2,1.059,3.332,3.332,0,0,0-.079,4.469l4.762-4.736a3,3,0,0,0-1.19-.686l-.158-.016c-.285-.029-.675-.069-1.139-.091ZM23.809,34.607a26.232,26.232,0,0,1-4.84-.476L21.8,31.3c.164.013.327.028.492.043.5.045,1,.091,1.518.091a23.063,23.063,0,0,0,11.9-3.2,22,22,0,0,0,8.2-8.173,17.025,17.025,0,0,0-5-5.528.863.863,0,0,1-.116-.052.856.856,0,0,0-.122-.055l2.54-2.538a25.158,25.158,0,0,1,6.4,8.174,25.757,25.757,0,0,1-9.628,10.554A26.245,26.245,0,0,1,23.809,34.607Zm.1-5.424,0,0L34.5,18.6a10.313,10.313,0,0,1-3.121,7.433,10.359,10.359,0,0,1-7.455,3.147Z" transform="translate(0 0)" fill="#bebebe"/><g transform="translate(0 0)" clip-path="url(#ef)"><g transform="translate(-5.417 -8.083)" clip-path="url(#eg)"><rect width="59.031" height="59.984" fill="#bebebe"/></g></g></g><g transform="translate(1703.677 782.442)" opacity="0.22" clip-path="url(#ee)"><path d="M7.516,39.64a2.565,2.565,0,0,1-1.854-.773l-.45-.45a2.643,2.643,0,0,1,0-3.731l4.207-4.231A25.6,25.6,0,0,1,0,20.058,25.757,25.757,0,0,1,9.628,9.5a26.246,26.246,0,0,1,14.18-4A26.154,26.154,0,0,1,32.8,7.1L39.1.773a2.669,2.669,0,0,1,3.757,0l.424.45a2.643,2.643,0,0,1,0,3.731L9.39,38.867A2.632,2.632,0,0,1,7.516,39.64ZM16,11.2A22.539,22.539,0,0,0,8.7,14.53a17.023,17.023,0,0,0-5,5.528,21.9,21.9,0,0,0,8.066,8.069l3.388-3.386A10.152,10.152,0,0,1,13.121,18.5,10.364,10.364,0,0,1,16,11.2Zm10.29-.876v0a3.34,3.34,0,0,0-2.2,1.059,3.332,3.332,0,0,0-.079,4.469l4.762-4.736a3,3,0,0,0-1.19-.686l-.158-.016c-.285-.029-.675-.069-1.139-.091ZM23.809,34.607a26.232,26.232,0,0,1-4.84-.476L21.8,31.3c.164.013.327.028.492.043.5.045,1,.091,1.518.091a23.063,23.063,0,0,0,11.9-3.2,22,22,0,0,0,8.2-8.173,17.025,17.025,0,0,0-5-5.528.863.863,0,0,1-.116-.052.856.856,0,0,0-.122-.055l2.54-2.538a25.158,25.158,0,0,1,6.4,8.174,25.757,25.757,0,0,1-9.628,10.554A26.245,26.245,0,0,1,23.809,34.607Zm.1-5.424,0,0L34.5,18.6a10.313,10.313,0,0,1-3.121,7.433,10.359,10.359,0,0,1-7.455,3.147Z" transform="translate(0 0)" fill="#bebebe"/><g transform="translate(0 0)" clip-path="url(#ef)"><g transform="translate(-5.417 -8.083)" clip-path="url(#eg)"><rect width="59.031" height="59.984" fill="#bebebe"/></g></g></g><g transform="translate(1423 554)" opacity="0.35" clip-path="url(#et)"><path d="M48,48H0V41.141H48V48ZM41.141,34.284H6.856V13.713H41.141V34.284ZM48,6.856H0V0H48V6.856Z" transform="translate(0)" fill="#bebebe"/><g transform="translate(0 0)" clip-path="url(#eu)"><g transform="translate(-14.176 -14.176)" clip-path="url(#ev)"><rect width="78.344" height="75.225" fill="#bebebe"/></g></g></g><g transform="translate(1416.07 214.846)" opacity="0.72" clip-path="url(#ew)"><path d="M20.833,47.617h0A31.722,31.722,0,0,1,10.416,39.06,42.712,42.712,0,0,1,3.255,26.272,60.117,60.117,0,0,1,0,5.951,41.521,41.521,0,0,0,20.833,0,41.806,41.806,0,0,0,41.666,5.951a60.115,60.115,0,0,1-3.255,20.321A42.711,42.711,0,0,1,31.249,39.06a31.729,31.729,0,0,1-10.415,8.556ZM5.951,23.809C8.893,35.575,20.714,44.552,20.833,44.641V23.812l14.879,0c.028-.028,2.976-3.187,2.976-14.881l-.036-.005c-1.53-.315-15.031-3.159-17.818-5.946V23.809Z" transform="translate(0 0)" fill="#bebebe"/><g transform="translate(0 0)" clip-path="url(#ex)"><g transform="translate(-11.904 -7.44)" clip-path="url(#ey)"><rect width="65.473" height="62.497" fill="#bebebe"/></g></g></g><g transform="translate(797.048 127.231)" opacity="0.5" clip-path="url(#ew)"><path d="M20.833,47.617h0A31.722,31.722,0,0,1,10.416,39.06,42.712,42.712,0,0,1,3.255,26.272,60.117,60.117,0,0,1,0,5.951,41.521,41.521,0,0,0,20.833,0,41.806,41.806,0,0,0,41.666,5.951a60.115,60.115,0,0,1-3.255,20.321A42.711,42.711,0,0,1,31.249,39.06a31.729,31.729,0,0,1-10.415,8.556ZM5.951,23.809C8.893,35.575,20.714,44.552,20.833,44.641V23.812l14.879,0c.028-.028,2.976-3.187,2.976-14.881l-.036-.005c-1.53-.315-15.031-3.159-17.818-5.946V23.809Z" transform="translate(0 0)" fill="#bebebe"/><g transform="translate(0 0)" clip-path="url(#ex)"><g transform="translate(-11.904 -7.44)" clip-path="url(#ey)"><rect width="65.473" height="62.497" fill="#bebebe"/></g></g></g><g transform="translate(1579.873 637.686)" opacity="0.35" clip-path="url(#ew)"><path d="M20.833,47.617h0A31.722,31.722,0,0,1,10.416,39.06,42.712,42.712,0,0,1,3.255,26.272,60.117,60.117,0,0,1,0,5.951,41.521,41.521,0,0,0,20.833,0,41.806,41.806,0,0,0,41.666,5.951a60.115,60.115,0,0,1-3.255,20.321A42.711,42.711,0,0,1,31.249,39.06a31.729,31.729,0,0,1-10.415,8.556ZM5.951,23.809C8.893,35.575,20.714,44.552,20.833,44.641V23.812l14.879,0c.028-.028,2.976-3.187,2.976-14.881l-.036-.005c-1.53-.315-15.031-3.159-17.818-5.946V23.809Z" transform="translate(0 0)" fill="#bebebe"/><g transform="translate(0 0)" clip-path="url(#ex)"><g transform="translate(-11.904 -7.44)" clip-path="url(#ey)"><rect width="65.473" height="62.497" fill="#bebebe"/></g></g></g><g transform="translate(1807.482 211.989)" opacity="0.83" clip-path="url(#ew)"><path d="M20.833,47.617h0A31.722,31.722,0,0,1,10.416,39.06,42.712,42.712,0,0,1,3.255,26.272,60.117,60.117,0,0,1,0,5.951,41.521,41.521,0,0,0,20.833,0,41.806,41.806,0,0,0,41.666,5.951a60.115,60.115,0,0,1-3.255,20.321A42.711,42.711,0,0,1,31.249,39.06a31.729,31.729,0,0,1-10.415,8.556ZM5.951,23.809C8.893,35.575,20.714,44.552,20.833,44.641V23.812l14.879,0c.028-.028,2.976-3.187,2.976-14.881l-.036-.005c-1.53-.315-15.031-3.159-17.818-5.946V23.809Z" transform="translate(0 0)" fill="#bebebe"/><g transform="translate(0 0)" clip-path="url(#ex)"><g transform="translate(-11.904 -7.44)" clip-path="url(#ey)"><rect width="65.473" height="62.497" fill="#bebebe"/></g></g></g><g transform="translate(625 123)" opacity="0.16" clip-path="url(#fi)"><path d="M24,48A24,24,0,1,1,48,24,24.027,24.027,0,0,1,24,48Zm.313-20.5c-1.151,3.4-2.331,6.853-3.473,10.2l-.013.037-.011.031q-1.154,3.38-2.312,6.776a18.757,18.757,0,0,0,5.5.793,20.325,20.325,0,0,0,6.5-1.08ZM4.391,15.384h0A20.934,20.934,0,0,0,2.663,24,21.585,21.585,0,0,0,14.641,43.416C11.969,36.149,9.269,28.75,6.658,21.594l-.046-.125L4.391,15.384ZM42.817,13.8h0c.725,5.542-.383,8.48-.979,10.059L41.783,24c-1.718,4.526-3.451,9.163-5.127,13.647l-.06.161q-.91,2.435-1.82,4.865A21.511,21.511,0,0,0,45.337,24,21.125,21.125,0,0,0,42.817,13.8Zm-29.632-1.73c.594,0,.9.65.938,1.253.037.628-.206,1.337-.826,1.411-.015,0-1.507.145-2.808.192l8.182,21.961L23.017,22.9l-3.024-8.184-2.21-.192c-.593-.023-.844-.735-.83-1.43.015-.744.339-1.5.931-1.5h.044c.035,0,3.543.287,5.592.287,2.209,0,5.569-.276,5.711-.287h.045c.591,0,.9.723.928,1.394.034.7-.21,1.473-.828,1.534a4.969,4.969,0,0,1-1.968.408l7.273,20.088c.029-.075,3.359-8.5,3.359-12a11.5,11.5,0,0,0-1.32-5.906c-.134-.22-.268-.436-.4-.649-.944-1.521-1.76-2.835-1.76-4.39a3.592,3.592,0,0,1,3.507-3.828,2.845,2.845,0,0,1,.452.035A21.521,21.521,0,0,0,6.072,12.312c.5.024.956.024,1.393.024,2.188,0,5.653-.261,5.687-.264Z" transform="translate(0)" fill="#bebebe"/><g transform="translate(0 0)" clip-path="url(#fj)"><g transform="translate(-1.19 -1.19)" clip-path="url(#fk)"><rect width="49.998" height="49.998" fill="#bebebe"/></g></g></g><g transform="translate(1163 97)" opacity="0.72" clip-path="url(#et)"><path d="M24,48A24,24,0,1,1,48,24,24.027,24.027,0,0,1,24,48Zm.313-20.5c-1.151,3.4-2.331,6.853-3.473,10.2l-.013.037-.011.031q-1.154,3.38-2.312,6.776a18.757,18.757,0,0,0,5.5.793,20.325,20.325,0,0,0,6.5-1.08ZM4.391,15.384h0A20.934,20.934,0,0,0,2.663,24,21.585,21.585,0,0,0,14.641,43.416C11.969,36.149,9.269,28.75,6.658,21.594l-.046-.125L4.391,15.384ZM42.817,13.8h0c.725,5.542-.383,8.48-.979,10.059L41.783,24c-1.718,4.526-3.451,9.163-5.127,13.647l-.06.161q-.91,2.435-1.82,4.865A21.511,21.511,0,0,0,45.337,24,21.125,21.125,0,0,0,42.817,13.8Zm-29.632-1.73c.594,0,.9.65.938,1.253.037.628-.206,1.337-.826,1.411-.015,0-1.507.145-2.808.192l8.182,21.961L23.017,22.9l-3.024-8.184-2.21-.192c-.593-.023-.844-.735-.83-1.43.015-.744.339-1.5.931-1.5h.044c.035,0,3.543.287,5.592.287,2.209,0,5.569-.276,5.711-.287h.045c.591,0,.9.723.928,1.394.034.7-.21,1.473-.828,1.534a4.969,4.969,0,0,1-1.968.408l7.273,20.088c.029-.075,3.359-8.5,3.359-12a11.5,11.5,0,0,0-1.32-5.906c-.134-.22-.268-.436-.4-.649-.944-1.521-1.76-2.835-1.76-4.39a3.592,3.592,0,0,1,3.507-3.828,2.845,2.845,0,0,1,.452.035A21.521,21.521,0,0,0,6.072,12.312c.5.024.956.024,1.393.024,2.188,0,5.653-.261,5.687-.264Z" transform="translate(0)" fill="#bebebe"/><g transform="translate(0 0)" clip-path="url(#fj)"><g transform="translate(-1.19 -1.19)" clip-path="url(#fk)"><rect width="49.998" height="49.998" fill="#bebebe"/></g></g></g></g></svg>