<?xml version="1.0" encoding="utf-8"?>
<!-- Generator: Adobe Illustrator 13.0.0, SVG Export Plug-In . SVG Version: 6.00 Build 14948)  -->
<!DOCTYPE svg PUBLIC "-//W3C//DTD SVG 1.1//EN" "http://www.w3.org/Graphics/SVG/1.1/DTD/svg11.dtd">
<svg version="1.1" id="Layer_1" xmlns="http://www.w3.org/2000/svg" xmlns:xlink="http://www.w3.org/1999/xlink" x="0px" y="0px"
	 width="344.666px" height="78.667px" viewBox="0 0 344.666 78.667" enable-background="new 0 0 344.666 78.667"
	 xml:space="preserve">
<g>
	<defs>
		<rect id="SVGID_1_" width="344.666" height="78.667"/>
	</defs>
	<clipPath id="SVGID_2_">
		<use xlink:href="#SVGID_1_"  display="none" overflow="visible"/>
	</clipPath>
	<path clip-path="url(#SVGID_2_)" fill="#82CEC0" d="M42.021,65.326c-2.671,0.002-5.185-1.039-7.073-2.926L17.952,45.405
		c-1.89-1.892-2.93-4.407-2.932-7.08c0.002-2.671,1.043-5.183,2.932-7.072l16.996-16.996c1.889-1.889,4.402-2.932,7.076-2.932
		c2.67,0.001,5.184,1.042,7.074,2.934l16.993,16.994c1.888,1.889,2.932,4.401,2.933,7.072c-0.004,2.673-1.042,5.188-2.933,7.077
		L49.098,62.4C47.206,64.289,44.694,65.326,42.021,65.326 M42.025,16.718c-1.148-0.001-2.227,0.442-3.036,1.256L21.667,35.297
		c-0.812,0.807-1.257,1.885-1.255,3.031c-0.001,1.148,0.443,2.223,1.257,3.038l17.321,17.32c0.81,0.811,1.887,1.254,3.03,1.256
		c1.151,0,2.227-0.445,3.038-1.258l17.321-17.319c0.811-0.812,1.255-1.889,1.257-3.037c-0.002-1.142-0.447-2.222-1.257-3.034
		l-17.323-17.32C44.246,17.162,43.17,16.716,42.025,16.718"/>
	<path clip-path="url(#SVGID_2_)" fill="#82CEC0" d="M42.131,52.859L32.116,42.844c-2.555-2.553-2.554-6.706-0.002-9.257
		l4.722-4.719l3.455,3.461l-4.716,4.715c-0.645,0.646-0.646,1.697-0.001,2.341l10.012,10.012L42.131,52.859z"/>
	<path clip-path="url(#SVGID_2_)" fill="#82CEC0" d="M47.202,47.666l-3.457-3.457l4.717-4.718c0.641-0.647,0.643-1.696-0.002-2.344
		l-9.957-9.952l3.461-3.459l9.955,9.955c2.551,2.55,2.553,6.704,0.001,9.257L47.202,47.666z"/>
	<path clip-path="url(#SVGID_2_)" fill="#414142" d="M82.2,51.19c-1.074,0-1.898-0.804-1.898-1.876V28.539
		c0-1.074,0.824-1.879,1.898-1.879h6.746c1.82,0,3.508,0.729,4.753,1.955c1.226,1.246,1.955,2.951,1.955,4.773
		c0,1.84-0.747,3.526-2.031,4.772c1.858,1.361,2.969,3.43,2.969,5.827c0,2.012-0.785,3.813-2.146,5.117
		c-1.361,1.322-3.239,2.087-5.251,2.087H82.2z M88.831,36.723c0.824-0.02,1.572-0.422,2.127-1.055
		c0.537-0.594,0.863-1.398,0.863-2.166c0-0.785-0.364-1.57-0.92-2.127c-0.556-0.556-1.342-0.9-2.166-0.9h-4.618v6.248H88.831z
		 M89.061,47.378c0.996,0,1.936-0.421,2.625-1.111c0.69-0.69,1.093-1.61,1.093-2.55c0-0.977-0.403-1.896-1.093-2.529
		c-0.709-0.633-1.647-1.016-2.645-1.016h-4.924v7.206H89.061z"/>
	<path clip-path="url(#SVGID_2_)" fill="#414142" d="M103.307,50.637c-0.384-0.384-0.575-0.824-0.575-1.342v-14.26
		c0-0.517,0.191-0.976,0.575-1.359c0.364-0.365,0.824-0.557,1.36-0.557c0.556,0,0.997,0.192,1.342,0.557
		c0.364,0.383,0.536,0.842,0.536,1.359c1.744-1.263,3.642-1.896,5.712-1.896h0.076c1.227,0,1.975,0.766,1.975,1.896
		c0,1.075-0.882,1.899-1.975,1.899h-0.076c-1.533,0-2.971,0.613-4.024,1.685c-1.074,1.075-1.688,2.512-1.688,4.102v6.574
		c0,1.071-0.823,1.896-1.896,1.896C104.13,51.191,103.67,51,103.307,50.637"/>
	<path clip-path="url(#SVGID_2_)" fill="#414142" d="M120.521,48.738c-1.705-1.705-2.683-3.986-2.683-6.458s0.978-4.752,2.683-6.458
		c1.686-1.688,3.986-2.684,6.459-2.684c2.472,0,4.733,0.958,6.42,2.645c1.686,1.686,2.683,3.966,2.702,6.419v7.033
		c0,0.518-0.192,0.979-0.556,1.381c-0.325,0.363-0.862,0.574-1.398,0.574c-0.997,0-1.764-0.747-1.86-1.744
		c-1.629,1.322-3.391,1.975-5.308,1.975C124.507,51.422,122.207,50.426,120.521,48.738 M130.755,46.018
		c0.978-0.978,1.533-2.301,1.533-3.737c0-1.456-0.555-2.779-1.533-3.757c-0.978-0.977-2.319-1.533-3.775-1.533
		c-1.438,0-2.76,0.556-3.738,1.533c-0.996,0.997-1.571,2.319-1.571,3.757c0,1.437,0.594,2.76,1.571,3.737
		c0.978,0.977,2.3,1.571,3.738,1.571C128.436,47.589,129.777,46.994,130.755,46.018"/>
	<path clip-path="url(#SVGID_2_)" fill="#414142" d="M144.618,48.777c-1.706-1.629-2.722-3.948-2.722-6.42v-0.019
		c0-0.021,0-0.021,0.02-0.021v-0.02c-0.02,0-0.02,0-0.02-0.019c0-2.511,1.016-4.792,2.722-6.497
		c1.687-1.687,4.005-2.684,6.516-2.684c2.434,0,4.695,0.864,6.228,2.453c0.442,0.442,0.691,0.959,0.709,1.515
		c0,0.556-0.21,1.034-0.613,1.399c-0.421,0.364-0.843,0.555-1.284,0.555c-0.594,0-1.13-0.344-1.743-0.824
		c-1.074-0.861-2.205-1.227-3.527-1.227c-1.399,0-2.722,0.653-3.661,1.668c-0.92,0.996-1.438,2.3-1.438,3.604l-0.018,0.038
		l0.018,0.019c0,1.304,0.518,2.588,1.419,3.564c0.92,1.018,2.165,1.648,3.565,1.668c1.38,0.059,2.549-0.287,3.642-1.227
		c0.613-0.479,1.149-0.805,1.705-0.805c0.46,0,0.901,0.191,1.322,0.556c0.403,0.364,0.613,0.825,0.613,1.38
		c-0.018,0.556-0.267,1.073-0.709,1.514c-1.533,1.592-3.794,2.453-6.228,2.453C148.623,51.402,146.305,50.444,144.618,48.777"/>
	<path clip-path="url(#SVGID_2_)" fill="#414142" d="M163.885,49.314V28.54c0-0.537,0.191-0.978,0.574-1.342
		c0.384-0.364,0.844-0.537,1.362-0.537c1.073,0,1.877,0.804,1.877,1.879V40.65l6.958-6.803c0.364-0.346,0.785-0.517,1.245-0.517
		c0.518,0,0.978,0.191,1.361,0.593v0.039c0.364,0.364,0.536,0.805,0.536,1.323c0,0.498-0.191,0.939-0.556,1.302l-4.351,4.141
		l4.888,7.492c0.21,0.326,0.307,0.672,0.307,1.035c0,0.672-0.307,1.246-0.863,1.61c-0.307,0.21-0.651,0.325-1.034,0.325
		c-0.633,0-1.208-0.307-1.571-0.861l-4.562-6.938l-2.377,2.262v3.661c0,0.517-0.172,0.957-0.536,1.322
		c-0.364,0.364-0.805,0.555-1.322,0.555C164.747,51.191,163.885,50.387,163.885,49.314"/>
	<path clip-path="url(#SVGID_2_)" fill="#414142" d="M185.47,48.738c-1.706-1.686-2.702-3.986-2.702-6.458
		c0-2.472,0.996-4.792,2.702-6.477c1.706-1.688,4.006-2.665,6.478-2.665c2.453,0,4.734,0.977,6.438,2.645
		c1.707,1.668,2.723,3.947,2.742,6.4c0,1.074-0.786,1.821-1.879,1.821h-12.246c0.307,1.073,0.958,2.013,1.82,2.683
		c0.862,0.69,1.975,1.055,3.124,1.055c1.476,0,2.605-0.46,3.431-1.361c0.402-0.325,0.824-0.479,1.265-0.479
		c0.211,0,0.422,0.039,0.633,0.115c0.364,0.134,0.671,0.402,0.92,0.805c0.211,0.326,0.326,0.688,0.326,1.073
		c0,0.556-0.25,1.033-0.729,1.438c-0.69,0.632-1.438,1.13-2.262,1.456c-1.016,0.402-2.223,0.613-3.584,0.613
		C189.476,51.402,187.176,50.426,185.47,48.738 M197.199,40.824c-0.288-1.17-0.92-2.186-1.821-2.895
		c-0.938-0.748-2.127-1.15-3.373-1.15c-1.285,0-2.396,0.384-3.335,1.15c-0.9,0.749-1.534,1.745-1.783,2.895H197.199z"/>
	<path clip-path="url(#SVGID_2_)" fill="#414142" d="M208.514,49.314V36.991h-1.38c-0.537,0-0.978-0.192-1.342-0.574
		c-0.383-0.403-0.575-0.864-0.575-1.362c0-1.072,0.844-1.878,1.917-1.878h1.38V28.54c0-1.075,0.843-1.879,1.916-1.879
		s1.896,0.804,1.896,1.879v4.637h1.649c1.093,0,1.917,0.806,1.917,1.878c0,1.093-0.824,1.936-1.917,1.936h-1.649v12.324
		c0,1.072-0.823,1.877-1.896,1.877S208.514,50.387,208.514,49.314"/>
	<path clip-path="url(#SVGID_2_)" fill="#414142" d="M223.733,50.042c-1.456-0.843-2.587-2.032-3.181-3.335
		c-0.174-0.345-0.25-0.689-0.25-1.016c0-0.191,0.039-0.402,0.096-0.613c0.135-0.402,0.441-0.729,0.901-0.996
		c0.307-0.173,0.594-0.25,0.843-0.25c0.557,0,1.15,0.384,1.764,1.15c1.073,1.706,2.855,2.645,5.136,2.645
		c1.15,0,2.3-0.307,3.144-0.92c0.9-0.613,1.456-1.514,1.456-2.605c0-1.055-0.498-1.859-1.476-2.416
		c-0.671-0.383-1.418-0.613-2.587-0.9l-0.498-0.135c-2.55-0.479-4.485-1.263-5.827-2.318c-1.59-1.246-2.376-2.836-2.376-4.771
		c0-2.051,0.939-3.834,2.473-5.118c1.514-1.246,3.507-1.955,5.577-1.955c1.552,0,2.971,0.307,4.273,0.901
		c1.36,0.652,2.377,1.552,3.047,2.683c0.135,0.231,0.211,0.479,0.211,0.729c0,0.095-0.019,0.211-0.037,0.363
		c-0.097,0.346-0.27,0.652-0.519,0.9c-0.287,0.289-0.767,0.461-1.245,0.461c-0.461,0-0.844-0.115-1.131-0.345
		c-0.786-0.69-1.457-1.168-2.013-1.418c-0.709-0.307-1.552-0.459-2.53-0.459c-1.149,0-2.223,0.306-2.989,0.861
		c-0.825,0.557-1.284,1.381-1.284,2.357c0,1.093,0.594,1.802,1.668,2.338c0.9,0.442,1.974,0.729,3.89,1.131
		c2.051,0.537,3.719,1.207,4.945,2.205c1.476,1.188,2.223,2.76,2.223,4.696c0,2.127-0.92,4.005-2.472,5.385
		c-1.591,1.361-3.757,2.166-6.076,2.166C227.03,51.441,225.248,50.943,223.733,50.042"/>
	<path clip-path="url(#SVGID_2_)" fill="#414142" d="M243.461,55.791V35.017c0-1.073,0.824-1.878,1.896-1.878
		c0.48,0,0.94,0.191,1.305,0.498c0.345,0.307,0.556,0.709,0.613,1.227c1.553-1.092,3.393-1.725,5.328-1.725
		c2.472,0,4.771,0.996,6.458,2.684c1.687,1.705,2.664,3.986,2.664,6.458s-0.978,4.753-2.664,6.458
		c-1.687,1.688-3.986,2.684-6.458,2.684c-1.975,0-3.795-0.594-5.328-1.725v6.094c0,1.074-0.844,1.879-1.918,1.879
		C244.285,57.67,243.461,56.865,243.461,55.791 M256.379,46.018c0.978-0.978,1.533-2.301,1.533-3.737
		c0-1.456-0.556-2.779-1.533-3.757c-0.978-0.977-2.319-1.533-3.775-1.533c-1.438,0-2.76,0.556-3.737,1.533
		c-0.997,0.997-1.571,2.319-1.571,3.757c0,1.437,0.594,2.76,1.571,3.737c0.978,0.977,2.3,1.571,3.737,1.571
		C254.06,47.589,255.401,46.994,256.379,46.018"/>
	<path clip-path="url(#SVGID_2_)" fill="#414142" d="M269.129,48.738c-1.705-1.705-2.683-3.986-2.683-6.458s0.978-4.752,2.683-6.458
		c1.687-1.688,3.986-2.684,6.459-2.684s4.733,0.958,6.42,2.645c1.687,1.686,2.684,3.966,2.703,6.419v7.033
		c0,0.518-0.192,0.979-0.557,1.381c-0.325,0.363-0.862,0.574-1.398,0.574c-0.996,0-1.764-0.747-1.859-1.744
		c-1.629,1.322-3.393,1.975-5.309,1.975C273.115,51.422,270.815,50.426,269.129,48.738 M279.363,46.018
		c0.979-0.978,1.533-2.301,1.533-3.737c0-1.456-0.555-2.779-1.533-3.757c-0.978-0.977-2.318-1.533-3.775-1.533
		c-1.438,0-2.76,0.556-3.737,1.533c-0.996,0.997-1.571,2.319-1.571,3.757c0,1.437,0.594,2.76,1.571,3.737
		c0.978,0.977,2.3,1.571,3.737,1.571C277.045,47.589,278.386,46.994,279.363,46.018"/>
	<path clip-path="url(#SVGID_2_)" fill="#414142" d="M293.227,48.777c-1.706-1.629-2.722-3.948-2.722-6.42v-0.019
		c0-0.021,0-0.021,0.019-0.021v-0.02c-0.019,0-0.019,0-0.019-0.019c0-2.511,1.016-4.792,2.722-6.497
		c1.687-1.687,4.005-2.684,6.516-2.684c2.434,0,4.695,0.864,6.229,2.453c0.441,0.442,0.69,0.959,0.709,1.515
		c0,0.556-0.211,1.034-0.613,1.399c-0.421,0.364-0.843,0.555-1.283,0.555c-0.595,0-1.131-0.344-1.744-0.824
		c-1.073-0.861-2.204-1.227-3.526-1.227c-1.399,0-2.723,0.653-3.661,1.668c-0.92,0.996-1.438,2.3-1.438,3.604l-0.018,0.038
		l0.018,0.019c0,1.304,0.519,2.588,1.419,3.564c0.921,1.018,2.165,1.648,3.565,1.668c1.38,0.059,2.549-0.287,3.642-1.227
		c0.613-0.479,1.149-0.805,1.705-0.805c0.46,0,0.901,0.191,1.322,0.556c0.402,0.364,0.613,0.825,0.613,1.38
		c-0.019,0.556-0.268,1.073-0.709,1.514c-1.533,1.592-3.795,2.453-6.229,2.453C297.231,51.402,294.913,50.444,293.227,48.777"/>
	<path clip-path="url(#SVGID_2_)" fill="#414142" d="M314.103,48.738c-1.706-1.686-2.702-3.986-2.702-6.458
		c0-2.472,0.996-4.792,2.702-6.477c1.706-1.688,4.006-2.665,6.478-2.665c2.453,0,4.734,0.977,6.438,2.645
		c1.707,1.668,2.723,3.947,2.742,6.4c0,1.074-0.786,1.821-1.879,1.821h-12.246c0.307,1.073,0.958,2.013,1.82,2.683
		c0.862,0.69,1.975,1.055,3.124,1.055c1.476,0,2.605-0.46,3.431-1.361c0.402-0.325,0.824-0.479,1.265-0.479
		c0.211,0,0.422,0.039,0.633,0.115c0.364,0.134,0.671,0.402,0.92,0.805c0.211,0.326,0.326,0.688,0.326,1.073
		c0,0.556-0.25,1.033-0.729,1.438c-0.69,0.632-1.438,1.13-2.262,1.456c-1.016,0.402-2.223,0.613-3.584,0.613
		C318.108,51.402,315.809,50.426,314.103,48.738 M325.832,40.824c-0.288-1.17-0.92-2.186-1.821-2.895
		c-0.938-0.748-2.127-1.15-3.373-1.15c-1.285,0-2.396,0.384-3.335,1.15c-0.9,0.749-1.534,1.745-1.783,2.895H325.832z"/>
</g>
</svg>
